<svg id="Calque_1" data-name="Calque 1" xmlns="http://www.w3.org/2000/svg" viewBox="0 0 3000 2200"><defs><style>.cls-1{fill:#3d903c;}.cls-2{fill:#4b993e;}.cls-3{fill:#973621;}.cls-127,.cls-134,.cls-3{stroke:#fff;stroke-miterlimit:10;}.cls-4{fill:#94bd44;}.cls-5{fill:#f4c94a;}.cls-6{fill:#6c2718;}.cls-7{fill:#aa3f25;}.cls-8{fill:#2e6d3c;}.cls-9{fill:#6b2718;}.cls-10{fill:#f5a337;}.cls-11{fill:#ed6e27;}.cls-12{fill:#e57423;}.cls-13{fill:#ee7229;}.cls-14{fill:#2c352f;}.cls-15{fill:#c05323;}.cls-16{fill:#f5ae3a;}.cls-17{fill:#c45a23;}.cls-18{fill:#af4320;}.cls-19{fill:#27432f;}.cls-20{fill:#348042;}.cls-21{fill:#fee27f;}.cls-22{fill:#2a3d2b;}.cls-23{fill:#82b743;}.cls-24{fill:#3a8839;}.cls-25{fill:#fff9e2;}.cls-26{fill:#de6b29;}.cls-27{fill:#b24920;}.cls-28{fill:#2c7a3e;}.cls-29{fill:#317c3c;}.cls-30{fill:#ae471f;}.cls-31{fill:#448d37;}.cls-32{fill:#8c311a;}.cls-33{fill:#3d8f3e;}.cls-34{fill:#f6b740;}.cls-35{fill:#ebb135;}.cls-36{fill:#34803c;}.cls-37{fill:#f4cd54;}.cls-38{fill:#f4be39;}.cls-39{fill:#b85021;}.cls-40{fill:#c3d455;}.cls-41{fill:#7fb13c;}.cls-42{fill:#338345;}.cls-43{fill:#d16421;}.cls-44{fill:#9dc760;}.cls-45{fill:#bed56e;}.cls-46{fill:#9ec863;}.cls-47{fill:#f7ac40;}.cls-48{fill:#f6a43d;}.cls-49{fill:#af4821;}.cls-50{fill:#b04b20;}.cls-51{fill:#f7a73e;}.cls-52{fill:#ab4720;}.cls-53{fill:#ba5120;}.cls-54{fill:#f6bf3a;}.cls-55{fill:#cddc7b;}.cls-56{fill:#328648;}.cls-57{fill:#b64f23;}.cls-58{fill:#ac4323;}.cls-59{fill:#f5a244;}.cls-60{fill:#f1b331;}.cls-61{fill:#276832;}.cls-62{fill:#ac4624;}.cls-63{fill:#f7ab3f;}.cls-64{fill:#f8af42;}.cls-65{fill:#ae4721;}.cls-66{fill:#f7ba39;}.cls-67{fill:#368a46;}.cls-68{fill:#c65a23;}.cls-69{fill:#358145;}.cls-70{fill:#529742;}.cls-71{fill:#f7b940;}.cls-72{fill:#9dc551;}.cls-73{fill:#348040;}.cls-74{fill:#ae4a23;}.cls-75{fill:#a6cb71;}.cls-76{fill:#589e47;}.cls-77{fill:#4c8c58;}.cls-78{fill:#479640;}.cls-79{fill:#8fbf4e;}.cls-80{fill:#479041;}.cls-81{fill:#72ac55;}.cls-82{fill:#348643;}.cls-83{fill:#a5c268;}.cls-84{fill:#408e4f;}.cls-85{fill:#3e8d50;}.cls-86{fill:#312e36;}.cls-87{fill:#4f9945;}.cls-88{fill:#3f3d47;}.cls-89{fill:#b1cf7c;}.cls-90{fill:#508859;}.cls-91{fill:#2e2a37;}.cls-92{fill:#73a753;}.cls-93{fill:#403f46;}.cls-94{fill:#a3bd82;}.cls-95{fill:#bdc775;}.cls-96{fill:#272630;}.cls-97{fill:#659747;}.cls-98{fill:#4c8458;}.cls-99{fill:#609349;}.cls-100{fill:#45414a;}.cls-101{fill:#65924a;}.cls-102{fill:#3e3d44;}.cls-103{fill:#36353c;}.cls-104{fill:#3d8144;}.cls-105{fill:#528e58;}.cls-106{fill:#99b964;}.cls-107{fill:#6b984d;}.cls-108{fill:#dedd8b;}.cls-109{fill:#84a562;}.cls-110{fill:#418147;}.cls-111{fill:#cfda7c;}.cls-112{fill:#789e56;}.cls-113{fill:#afce6a;}.cls-114{fill:#9ab97b;}.cls-115{fill:#6c9b55;}.cls-116{fill:#91b47b;}.cls-117{fill:#508760;}.cls-118{fill:#7ea882;}.cls-119{fill:#90b265;}.cls-120{fill:#7aa953;}.cls-121{fill:#5a945f;}.cls-122{fill:#73a381;}.cls-123{fill:#265832;}.cls-124{fill:#2a3b2b;}.cls-125{fill:#eea136;}.cls-126{fill:#7f2d1d;}.cls-127,.cls-136{fill:#b4491f;}.cls-128{fill:#ef8433;}.cls-129{fill:#fac780;}.cls-130{fill:#a94122;}.cls-131{fill:#ec7925;}.cls-132{fill:#ec9c2f;}.cls-133{fill:#fef1b9;}.cls-134{fill:#d86825;}.cls-135{fill:#7dbe74;}.cls-137{fill:#dd7029;}.cls-138{fill:#feeabe;}.cls-139{fill:#f6d047;}.cls-140{fill:#f7cd4b;}.cls-141{fill:#f4d542;}.cls-142{fill:#f3b533;}.cls-143{fill:#ec7924;}.cls-144{fill:#f2a830;}.cls-145{fill:#e9922d;}.cls-146{fill:#f6d146;}.cls-147{fill:#e88828;}.cls-148{fill:#f1dc54;}.cls-149{fill:#eb7827;}.cls-150{fill:#348b47;}.cls-151{fill:#fbfdfc;}.cls-152{fill:#f3f3f4;}.cls-153{fill:#f3f2f4;}.cls-154{fill:#589f46;}.cls-155{fill:#ebf4eb;}.cls-156{fill:#f9f9fa;}.cls-157{fill:#fcfbfd;}.cls-158{fill:#fcfbe6;}.cls-159{fill:#f6f5f6;}.cls-160{fill:#f4f8f0;}.cls-161{fill:#f1f7f4;}.cls-162{fill:#ebf3e3;}.cls-163{fill:#ecf3e5;}.cls-164{fill:#f5f4f6;}.cls-165{fill:#fefdfe;}.cls-166{fill:#daeada;}.cls-167{fill:#ebf4ec;}.cls-168{fill:#f2f6df;}.cls-169{fill:#edf4e4;}.cls-170{fill:#e1eee2;}.cls-171{fill:#e4eed7;}.cls-172{fill:#e46625;}.cls-173{fill:#fff;}.cls-174{fill:#c75022;}.cls-175{fill:#9b3116;}.cls-176{fill:#c65020;}</style></defs><path class="cls-1" d="M1412,692c4.36-1.29,8.82-.42,13.23-.6,2.12-.09,3.22-.57,3.2-3-.13-14.82-.18-29.65-.24-44.48a2.72,2.72,0,0,0-1.15-2.48c-2.59-7.46-1.55-15.14-.79-22.64s-.88-14.88-.72-22.32c.07-3.09-2.15-3.55-4.55-3.49-10.64.29-21.2-1.53-31.86-1-2.45.11-5.19.46-6.88-2.17-.74-19.1-.15-38.2-.3-57.31,0-2.92,1.32-2.91,3.57-2.55,13.83,2.2,27.68,4.29,41.52,6.42,1.71,2,1.48,4.46,1.49,6.83,0,11.14.12,22.29,0,33.42-.06,4.19,1.59,6.12,5.68,6.49,3.49.32,7,.08,10.47.76,3.68.72,4.87-1.12,4.89-4.46,0-6.84,0-13.69,0-20.53,0-2.22-.16-4.47.87-6.57a4.68,4.68,0,0,1,4-2.18c5-.18,9.92-1.54,15-1.12,12.8-.45,12.8-.45,12.81,12.28q0,12.2,0,24.39c0,2.49.26,4.75,3.06,5.85,1.86.73,2.38,2.44,2.45,4.3a21.24,21.24,0,0,0,.72,6.14c.89,8.87.24,17.78.42,26.67.13,6,.23,5.75,6.05,6.57,6.3.88,12.71.06,18.92,1.65,2,1.77,2,4,1.57,6.37-1.55,1.7-4.24.83-5.75,2.6-1.19,1.73-.78,3.7-.79,5.57,0,11.43.05,22.86,0,34.28,0,5.69-1,6.74-6.63,6.87-5.24.11-10.48.19-15.71-.07-4-.08-8,0-12-.06-5.6-.12-6.67-1.07-6.76-6.79-.17-11.15,0-22.31-.06-33.47,0-1.59,0-3.18-.1-4.78-.12-2.34-1.36-3.47-3.64-3.5-9.88-.15-19.76-.1-29.64,0-3.78,0-3.76,2.67-3.77,5.31,0,11.63,0,23.27,0,34.9,0,2.38.22,4.8-.7,7.09C1424.08,695.26,1418.09,694.22,1412,692Z"/><path class="cls-2" d="M1622.2,642.17c2.66-.52,2.26-2.62,2.27-4.48,0-11.75.06-23.51.14-35.26,0-1.72-.35-3.5.48-5.16,2,1.88,1.58,4.4,1.6,6.73.08,10,0,20.06,0,30.09,0,5.25.52,5.76,5.77,5.76,11,0,22,.27,33-.25,6.36.84,7.14,1.56,7.19,7.68q.15,18.9,0,37.8c-.05,6.34-1.22,7.41-7.64,7.57-3.67.09-7.34.15-11,0-3.94-.16-5.31,1.6-5.27,5.43.1,11.48,0,23,0,34.45,0,1.75,0,3.51-.07,5.26-.08,3.33-1.5,4.85-5,4.6-3.81-.28-7.66-.08-11.48-.06-6.18,0-5.5-.61-5.51,5.74,0,10.69,0,21.38,0,32.06,0,1.58.28,3.2-.3,4.74.27,3-2,2.28-3.58,2.29-7.47,0-15-.07-22.42-.12a4,4,0,0,1-2.24-3.91c-.09-13.13-.83-26.26.37-39.36a3.48,3.48,0,0,1,1.06-1.42c2.69-1.38,5.61-.82,8.43-.83s4.64-1,4.44-4.11c-.57-9.22,1.31-18.37.91-27.56a43.35,43.35,0,0,1,2.52-15.84c.25-.77.42-1.72,1.07-2.08,4.93-2.76,4-7.46,4-11.83,0-10.17,0-20.34,0-30.51C1620.92,647.05,1620.93,644.5,1622.2,642.17Z"/><path class="cls-3" d="M1459.62,1119.94c-12.27-.53-12.26-.53-12.26-12.62,0-8.58,0-17.17-.06-25.75,0-2,.51-4.24-2.8-4.23-2.07,0-1.85-1.79-1.85-3.2q0-17.88-.05-35.76c1.28-2.23,3.41-2.13,5.48-1.85,10,1.33,20.06-.09,30,1.51a10.67,10.67,0,0,0,7.32-1.65,1.48,1.48,0,0,1,1.51.58c1.21,2,1,4.32,1,6.53,0,9.09,0,18.18,0,27.27,0,5,.58,5.44,5.52,5.55,8.77.19,17.55-.4,26.3.39,2.63.24,3.43-1.09,3.45-3.34.09-9.25,0-18.5,0-27.75,0-3.06-2.63-3.68-4.51-5.58,2.31-2.21,4.63-2.57,7.3-1.35,1.28,1.86,1,4,1,6,.1,11.32-.11,22.64.13,34,.19.9.49,1.77.62,2.68.48,12.78.14,25.56.19,38.34a6.59,6.59,0,0,1-.94,4.08c-1.86,1.62-4.15,1.41-6.34,1.43-8.73,0-17.45,0-26.18,0a7.58,7.58,0,0,1-2.83-.15c-8-3.41-16.48-2.5-24.82-3A15.11,15.11,0,0,1,1459.62,1119.94Z"/><path class="cls-4" d="M1626.32,784.88c-.08-13.22-.12-26.44-.26-39.66,0-2.49.94-3.39,3.39-3.33,4.62.1,9.25-.15,13.86.08,3.23.16,4-1.1,4-4.15-.12-13.7.1-27.41-.14-41.11-.07-4.21.83-6.07,5.45-5.67,4.91.42,9.88,0,14.82.14,2.55.07,3.74-.62,3.72-3.46-.09-14.34-.23-28.68.08-43,.11-5.09-4.5-2.2-5.92-4.33-1.79-2-1.37-4.46-1.38-6.78-.07-10.28,0-20.56,0-30.84,0-5.26-.31-5.44-5.66-5.84-1.86-.14-3.85.08-5.21-1.67,7.24-1.3,14.56-.39,21.83-.83a5.7,5.7,0,0,1,3-1.25c12.47-.78,24.94-1.62,37.45-1a5.68,5.68,0,0,1,3.54,1.16c.56,1.28-.39,1.71-1.26,2.08a12,12,0,0,1-4.69.62c-8.68,0-8.7-.69-8.69,9.09q0,15.27,0,30.53c0,2.37.2,4.81-1.38,6.87l0-.08c-2.72,1.76-5.79,1.43-8.79,1.48-6.54.09-7,.45-7,7.13,0,21.61,0,43.23,0,64.84,0,2.65.51,5.46-1.47,7.76a11.39,11.39,0,0,1-1.41.2c-10.13.35-10.09.35-10.16,10.82-.06,9.11,1.17,8-8.2,8.09-11.47.06-23,.17-34.42,0-3.51-.06-4.7.91-4.63,4.53.22,10.83.1,21.67.06,32.5C1626.76,781.44,1627.18,783.23,1626.32,784.88Z"/><path class="cls-5" d="M1685.27,991.87l-3.65.76c-7.13,1.1-7.13,1.1-7.13,8.78,0,7,.07,14-.06,21,0,1.28,1.21,3.38-1.46,3.75-1.64-1.86-1.35-4.16-1.38-6.35-.07-6.66-.09-13.33,0-20,.05-3.44-1.36-4.84-4.8-4.79-6.5.08-13,.09-19.51,0-2.33,0-4.85.24-6.47-2.12-1-2.25-.8-4.66-.81-7,0-9.35,0-18.71,0-28.06,0-2.36-.16-4.79,1.25-6.9a4.28,4.28,0,0,1,1.32-1.11c9-1.63,18.05-.2,26.3-.79-6.38,0-13.54,0-20.69,0-2,0-4.16.16-6-1.2-1.34-1.89-1.14-4-.82-6.06,1.36-7.12.36-14.3.63-21.44.11-3,0-6.06,0-9.08.09-6.16,1-7.1,7.34-7.13,11.95-.06,23.9.09,35.84-.07a127,127,0,0,0,14.2-.51c2.82-.36,4.54.58,5.24,3.48a15.49,15.49,0,0,1,.42,3.76c0,11-.16,22,.1,33,.09,3.79-1.28,4.61-4.68,4.41-4.23-.24-8.49-.1-12,0,5.07.36,11-.57,16.79.48a.5.5,0,0,1,.2.63c-1.4,2.07-3.62,1.72-5.61,1.76-5.71.12-11.41,0-17.12.07-4.92.08-5.36.52-5.39,5.56-.06,9,.11,18.07-.08,27.1-.08,4.09.76,6.85,5.53,6.79A2.77,2.77,0,0,1,1685.27,991.87Z"/><path class="cls-6" d="M1400.21,904.76c-1-14.41-.27-28.84-.45-43.26,0-2.08.91-2.66,2.85-2.8,8.86-.63,17.71-1.4,26.56-2.12q22.47-2.07,45-2.3c6.44,0,6.78.34,8.53,6.43.62,13,.17,26,.26,39.08,0,3.62-1.88,5.14-5.3,5.27-2.86.12-5.72.2-8.58.06-9.22-.46-18.39.8-27.6.87-11.94.26-23.88.07-35.82.1C1403.75,906.09,1401.84,906,1400.21,904.76Z"/><path class="cls-7" d="M1488.29,811c4.53-2.57,9.64-1.28,14.43-2.11,2.74-.47,5.68.45,8.27-1.16a3.64,3.64,0,0,1,1.53-.86c17.14-2,34.41-1.34,51.6-2.37a2.1,2.1,0,0,1,1.45,1,2.65,2.65,0,0,1,.38.87c.69,15.51,1.08,31-.2,46.52-1.17,2.24-3.33,2.3-5.37,2.21-11.58-.52-23.09.89-34.64,1-10-.07-20,1.39-30,1.16-6.31-.14-8.47-3.58-8.18-8.74.63-11.13.07-22.25.37-33.37C1487.94,813.82,1487.6,812.36,1488.29,811Z"/><path class="cls-8" d="M1486.41,691.2c5.1,0,10.21-.31,15.28.06,4.5.33,6.07-1,6-5.71-.34-12.41-.14-24.85-.08-37.27,0-1.66-.69-3.55,1-4.93,1.73,2,1.4,4.5,1.41,6.85,0,11.15,0,22.3,0,33.45,0,5.52.5,5.9,6,6,9.12.16,9.12.16,9.13-9.1,0-10,0-20.07,0-30.1,0-2.36-.31-4.81,1.15-7a1.12,1.12,0,0,1,1.63,0,6.51,6.51,0,0,1,1.11,4.07c0,14.48.41,28.95-.22,43.42-1.49,13.24-.31,26.53-.71,39.79-.11,3.77.5,7.59-.65,11.31a3.05,3.05,0,0,1-1.18,1.36c-6.4,1.77-12.94.63-19.42.83-7.33.22-7.44.16-7.45,7.48,0,9.85,0,19.7,0,29.55,0,2.19.28,4.5-1.43,6.33-9.68.11-19.36.13-29,.39-3,.09-2.8-1.64-2.8-3.62q0-20.73-.09-41.46c1.43-1.67,3.42-1.51,5.31-1.58,2.86-.11,5.74-.17,8.6,0,3.76.19,5-1.54,5-5.13-.07-12.12,0-24.24,0-36.36,0-2.38-.23-4.79.48-7.13A5.59,5.59,0,0,1,1486.41,691.2Z"/><path class="cls-9" d="M1406.32,1035.69c-1.19-11.74.53-23.6-.74-35.26-1.88-17.22-.79-34.46-1.63-51.67,3.53-2.83,7.55-1.52,11.39-1.2a128.76,128.76,0,0,0,26-.16,157.29,157.29,0,0,1,22.56.09c4,1.25,8.12.57,12.19.74,1.72.08,3.47-.11,5.11.64a2.93,2.93,0,0,1,1.21,1.3c1.2,3.74.72,7.61.65,11.4-.2,10.35.74,20.72-.52,31a3.59,3.59,0,0,1-1.08,1.44c-4,1.63-8.27.41-12.39,1-4.45,0-8.92.3-13.35-.39-3.42-1.08-7-.68-10.43-.63-10.33.16-20.67,0-31,.14-5.3,0-5.76.47-5.79,5.69-.06,10.65,0,21.31-.08,32C1408.44,1033.15,1409.89,1036,1406.32,1035.69Z"/><path class="cls-10" d="M1606.12,1242.6l-1.8.78c-4.65,2.46-9.85,2.09-14.83,2.75a123.68,123.68,0,0,1-17.51,1.44c-2.32,0-5.1-.14-4.62-2.9,0,10.93,0,22.82,0,34.72,0,2.35.33,4.79-1.17,6.91a1.13,1.13,0,0,1-1.61-.12c-1.26-1.86-.93-4-.94-6,0-10.52,0-21,0-31.56,0-1.23-.14-2.46,0-3.7-.47-23,1.1-45.93.84-68.91,0-2.35-.29-4.79,1.1-6.93,2.21.88,2.28.88,2.3,3.71.06,8.74,0,17.49,0,23.93-.09-7.79.21-17.89-.13-28-.1-2.82.77-4.77,3.77-5,10.43-.76,20.89-1,31.31-1.9a3.85,3.85,0,0,1,2.25.69c1.79,1.79,1.51,4.11,1.52,6.3.07,8.92,0,17.84,0,26.76,0,9.18-3,12.22-12.36,11.68-4.23-.24-8.19.93-12.29,1.29-1.09.1-2.09.64-3.65,2,5.73-.77,10.69-1.08,15.63-1.54a27.93,27.93,0,0,1,4.28-.32c5.63.32,7.31,2,7.4,7.67.11,6.05.07,12.1,0,18.15C1605.54,1237.23,1605.9,1239.9,1606.12,1242.6Z"/><path class="cls-11" d="M1606.12,1242.6c-2.41-.6-2-2.55-2-4.25,0-7,0-14,0-21,0-6.31-2.69-8.23-9-7.27s-12.5,1.34-18.79,2c-.24-2.47.67-3.53,2.41-4.09,4.51-1.44,9.16-2.7,13.84-2,4.22.65,7.68-1.36,11.45-2.19,1.55-.33,1-2.13,1-3.33q0-18.86-.14-37.71a1.57,1.57,0,0,1,.92-1.48c6.27-1.14,12.65-1.15,19-1.7,1.43-.12,2.87,0,4.3-.06,9.94-.41,10-.41,9.93,9.82s.27,20.71-.19,31.06c0,11.29-.22,22.58,0,33.86.06,3.69-1.1,4.9-4.78,5.21C1624.72,1240.24,1615.43,1241.52,1606.12,1242.6Z"/><path class="cls-12" d="M1673.18,1117.53c-2.46.79-2,2.83-2,4.67,0,10.29-.06,20.59.1,30.89,0,2.9-.61,4.27-3.84,4.42-8.37.41-16.73,1.18-25.1,1.8-3.45.14-3.1-2.62-3.18-4.6-.38-8.88-.79-17.83-.44-26.65.59-14.78.18-29.54.5-44.31a17.85,17.85,0,0,1,.46-5.2c1-2.43,3.14-3.06,5.44-3.13q11.92-.35,23.85,0c2.23.06,4.64.29,4.59,3.53C1673.33,1091.81,1674,1104.68,1673.18,1117.53Z"/><path class="cls-13" d="M1565.85,1286.44c.46-14.68-.83-29.42,1.38-44.28,0,3.74,2.09,4.37,5.06,4.07,8-.82,16-1.37,24-2.41,2.7-.35,5.35-.32,8-.44,0,11,0,21.94.17,32.91a11.29,11.29,0,0,1-1.51,5.88q-11,19.77-22,39.59c-.73,1.34-1.51,2.53-3.08,2.65-4,.3-7.78,1.77-11.8,1.15-1.66-1.38-1.73-3.32-1.75-5.22q-.11-14.5,0-29A6.82,6.82,0,0,1,1565.85,1286.44Z"/><path class="cls-14" d="M1564.64,691.45l20.28-.43a7.15,7.15,0,0,1,4.49-1.35c6.36-.09,12.72-.21,19.08,0,5.32.21,7.34,2.72,6,7.74a31.72,31.72,0,0,0-.8,8.49c.2,11-.92,21.92-.46,32.88.11,2.68-.75,3.62-3.49,3.58-3.46,0-7-.6-10.39.42v0a3.36,3.36,0,0,1-1.63,1,187.55,187.55,0,0,1-30,.15c-2.53-.15-4-2-4-4.56-.23-15.42-.38-30.84.08-46.26A3,3,0,0,1,1564.64,691.45Z"/><path class="cls-15" d="M1564.73,1245.24c0,1,0,1.91,0,2.86a2.45,2.45,0,0,1-1.54.52c-11.85-1.27-23.83-1.48-34.87-4.12,1,1.56,1,3.73-.87,5.79-1.08-7.78-1.08-7.77-9.21-8.67-4.74-.52-9.47-1.15-14.21-1.61-2.22-.21-3.38-.84-3.32-3.45.23-8.58.2-17.16.26-25.73,1-8.87,1-8.82,10.12-8.21,5.36.36,10.67,1.29,16.07,1.17,10.11,1.35,20.27.5,30.4.73,6.63.16,6.81.38,6.89,7C1564.58,1222.75,1564.05,1234,1564.73,1245.24Z"/><path class="cls-8" d="M1564.11,804.84c-.84,1.29-2.18,1.08-3.43,1.12-12.18.39-24.36.84-36.55,1.11-4.24.1-8.42,1.76-12.71.44-1-3.47-.67-7-.19-10.48a9.81,9.81,0,0,1,0-5c-.19-1.13-1.13-2.72.58-3.07,1.29-.26,1.46,1.44,1.64,2.48.54,3.15.25,6.35.31,9.52.06,2.66,1.37,3.88,3.89,3.51,2.69-.39,6.45,1.44,7.33-3.15a26.05,26.05,0,0,0,.17-4.76c0-15.59,0-31.18,0-46.77,0-2.34-.4-4.82,1.31-6.86l.31-.3a5.41,5.41,0,0,1,4-1.26c9.94-.12,19.88-.17,29.82,0a7.21,7.21,0,0,1,2.77.59,2.91,2.91,0,0,1,1.33,1.29,12.56,12.56,0,0,1,.61,5.16q0,25.23,0,50.45C1565.29,801,1565.66,803.1,1564.11,804.84Z"/><path class="cls-16" d="M1565.34,852.91l-.21-47.55a2.52,2.52,0,0,1,1.28-1.19c6.64-1.21,13.2.31,19.73,1,4.45.46,9.24-.93,13.39,1.8a3.83,3.83,0,0,0,.83.47c8.56,2.25,8.56,2.24,8.57,11.49,0,8.12.15,16.25-.06,24.37-.09,3.12,1.18,4.25,4,4.54,9.65,1,19.28,2.3,29,2.93,4.5.29,8.65,1.89,13.07,2.26,1.94.88,4.93,1.23,2.2,4.44-5.16,1.35-10.41.49-15.63.64-7.66.2-15.24-1.08-22.89-1.28a19.51,19.51,0,0,0-7.09-.67c-14.66.46-29.23-.79-43.81-2A3.68,3.68,0,0,1,1565.34,852.91Z"/><path class="cls-17" d="M1488.29,811q0,16.89.08,33.78c0,1.11-.09,2.23,0,3.33.75,6.49,2.06,7.35,8.56,7.68,9.67.5,19.24-1.7,28.9-.88,1.37,1.61,1.15,3.57,1.15,5.45,0,13.31-.1,26.63.11,39.94.05,3.38-1.3,4.58-4.4,4.62-4.59.07-9.19,0-13.78.09q-10.47.18-21,0c-5.51-.09-5.68-.7-5.51-6.08.39-12.23.12-24.47.12-36.7,0-.75.05-1.67-1.19-1.5,0-4.27-2.29-5.09-6.29-5-15.32.22-30.61,1.77-45.94.89,14.72-3.37,29.73-5.07,44.61-7.48,3.46-.56,6.9-1.28,10.38-1.55,2.87-.22,3.66-1.41,3.62-4.19-.13-9.88,0-19.75,0-29.63A15.33,15.33,0,0,1,1488.29,811Z"/><path class="cls-18" d="M1527.44,1250.29c.13-2.35.25-4.69.35-6.62,8.24.87,16.3,1.82,24.38,2.54,4,.36,8,.59,11.86,2,.91,11,.13,21.94.42,32.9,0,1.71-.54,3.51.53,5.12a2.61,2.61,0,0,0,.87.19l.27,39.12c-7.33-.16-13-2.16-16.82-9.6-6.1-11.87-13.45-23.09-20.3-34.58a9.05,9.05,0,0,1-1.76-4.84C1527.33,1267.79,1527.38,1259,1527.44,1250.29Z"/><path class="cls-19" d="M1382.28,589.87a12.05,12.05,0,0,0,5.15.75c11.93.31,23.86.65,35.78.94,2.16.06,3.9,0,4.14,3.1,1.16,15.37-.72,30.75.26,46.12,0,.24-.35.5-.53.75-14,.07-28,.11-42,.25-2.1,0-3.14-.33-3.11-2.81C1382.18,622.61,1382.21,606.24,1382.28,589.87Z"/><path class="cls-20" d="M1599.53,807c-11.37.28-22.61-1.45-33.93-2.1-1.83-1.46-1.1-3.52-1.11-5.33,0-17.15,0-34.29,0-51.44,0-1.72.35-3.49-.35-5.18l-.4-.21a6,6,0,0,1-1.16-4c0-15.66-.24-31.32.08-47,.16-.26.32-.52.49-.78l1.54.53c0,15.15.26,30.3,0,45.44-.08,4.71,1.48,6,6,5.91,9.56-.25,19.13,0,28.7.06q0,19.08,0,38.15c0,2.07-.06,4.13.94,6C1598.87,793.64,1600.05,800.33,1599.53,807Z"/><path class="cls-3" d="M1526.67,1205.08c-6.33.46-12.59-.59-18.78-1.43-4.25-.58-6.54-.34-6.15,4.55a3,3,0,0,1-.78,2.63c-.58-7.46-.57-7.62-8.38-8.17-3.17-.23-4.3-1.17-4.24-4.49.19-12.38.09-24.78.1-37.17,2.6-6.78,1.69-13.77,1-20.67-.82-7.79,1.2-9.92,9-9,5.07.63,10,1.21,11.09,7.58a1.64,1.64,0,0,0,1.28,1.31c6.76,1.07,5.58,6.18,5.48,10.72,0,1-.33,1.89-.38,2.84-.18,4,1.57,6.53,5.52,7.87,1.8.61,3.76.76,5.37,1.92a4.1,4.1,0,0,1,.9,1.48c1,12.17.38,24.35.36,36.52A5.14,5.14,0,0,1,1526.67,1205.08Z"/><path class="cls-21" d="M1618.52,855.67l22.91,1.09c1.8,2,1.54,4.42,1.55,6.78,0,10.63,0,21.26,0,31.88,0,5.28.44,5.66,5.73,5.71,8.72.08,17.45-.08,26.17.09,5.56-.19,11.11,0,16.66-.08,13-.17,11.45,1.67,11.55-11.8.07-8.41,0-16.82,0-25.23,0-2.2-.22-4.5,1.48-6.32,1.85,1.28,1,3.21,1,4.83q.09,17.46,0,34.92c-.07,17-.2,34-.3,51.05h-21.44l0-.93c5.48,0,11-.18,16.43.07,3.43.15,4.33-1.13,4.27-4.4-.17-10.19-.06-20.38-.07-30.57,0-7.66,0-7.47-7.61-7.34-11.25.19-22.49.08-33.74.09-5.26,0-10.52.16-15.76,0-3.19-.13-4.12,1.07-4.07,4.14.14,9.4.05,18.79,0,28.19,0,1.4.31,2.89-.72,4.12-2-1.66-1.62-4-1.64-6.18-.09-7.92,0-15.85-.06-23.78,0-5.45-.49-5.86-6.08-5.9-7.29,0-14.58,0-21.88,0a14.75,14.75,0,0,0-7.76,1.81c-13-1.54-26.11-.3-39.14-1.22-2.95-.66-5.95-.49-8.93-.72-1.39-.11-3.35-.13-3.55-1.68s1.82-1.8,3.09-2.17a28.92,28.92,0,0,1,9.36-.8c10.15-1.42,20.29.37,30.45,0,8-.33,8-.08,8.07-8.35,0-10.33-.07-20.66,0-31,.06-6.33.4-6.63,6.83-6.56C1613.8,855.35,1616.2,854.89,1618.52,855.67Z"/><path class="cls-22" d="M1486.37,692.17c0,15.44,0,30.88.18,46.31,0,3.77-1.37,4.58-4.76,4.44-5.24-.21-10.5,0-15.75,0l-19.9-.39c-2-2-2.21-4.57-2.25-7.1-.2-12.43-.15-24.85,0-37.28,0-2.41.31-4.8,2.33-6.54,6.38-2.13,13-1.42,19.4-.79,6,.59,12,.62,18.05.79C1484.57,691.67,1485.56,691.47,1486.37,692.17Z"/><path class="cls-23" d="M1487.29,602.22c-1.19-1.36-.77-3-.75-4.56,0-2.81.31-5.39-3.94-5.24-2.68.1-1.86-2.48-1.87-4-.07-10.8-.22-21.6,0-32.38.09-4.19-.82-6.31-5.44-5.61a42.45,42.45,0,0,1-6.18.05,5.31,5.31,0,0,1-1.34-3.48c-.23-9-.2-18.05,0-27.07a5.07,5.07,0,0,1,1.52-3.87c5.07.13,10.15.34,15.22.37,3.1,0,4,1.45,4,4.44-.16,8.89,0,17.79-.11,26.68-.05,2.86.9,3.89,3.73,4.07,5.7.37,11.37,1.31,17.07,1.58,3.34.16,4.25,1.38,4.21,4.61-.16,12.23-.06,24.46-.05,36.69-2.3,2-5.09,1.54-7.68,1.19-3.92-.52-7.89-.51-11.77-1.23-3.3-.6-5.24.2-5.17,4A4.37,4.37,0,0,1,1487.29,602.22Z"/><path class="cls-24" d="M1719,593.78c-14.72-1-29.4.67-44.11.63,0-14.48.2-29,0-43.43-.05-3.6,1-4.53,4.53-4.61,11.59-.25,23.15-1.59,34.77-1.43,1.87,1.94,1.46,4.42,1.48,6.75.06,10,0,20,0,29.95,0,5.08.41,5.46,5.36,5.62,4.12.12,8.19.83,12.28,1.26,1.14.12,4.39-.16,2.07,2.91l-14.65,2.27A1.68,1.68,0,0,1,1719,593.78Z"/><path class="cls-25" d="M1673.22,1026.16c1.68-3.14.67-6.52.77-9.77.18-5.58,0-11.16.06-16.74,0-7.26,0-7.26,7.57-7-7,.32-6.84,4.93-6.71,10.23.27,11.3,0,22.62,0,33.94-5.41,2.19-11.19,1.58-16.81,2.19-3.45.37-7,0-10.46.1-4.89.13-5.51.67-5.58,5.52-.12,8.57-.07,17.14,0,25.7a14.31,14.31,0,0,1-1.93,8.18c-.12.85.12,1.8-.69,2.45-8.25.6-16.52.08-24.78.23-6.66.12-7,.41-7.06,7,0,8,.07,15.92,0,23.87-.06,3.85,1.5,5.48,5.35,5.43,6.69-.08,13.37,0,20.06,0,2.2,0,4.49-.28,6.47,1.11.79,1.9-.82,2.09-1.88,2.42a21.41,21.41,0,0,1-7,1.16c-7.8-.22-15.53.76-23.29,1.09-1.33-.11-2.46.6-3.69.92a4.91,4.91,0,0,1-1.53,0c-2.2-.24-4.46.12-6.64-.45-.76-.2-1.64-.5-1.61-1.46s.94-1.14,1.67-1.41c1.86-.69,4.27.4,5.66-1.76,1.48-5.67.47-11.43.67-17.13.16-4.62.1-9.24,0-13.86,0-1.81-.24-3.78-2.61-3.86-9.68-.35-19.37-.77-28.85,1.82a3.73,3.73,0,0,0-1.09,2.57c.14,10.47-.51,20.95.37,31.39.55,1.16,1.71,1.8,2.44,2.82a2.44,2.44,0,0,1-.27,2.25c-.53.64-1.13,1.23-1.63,1.89-1.2,1.72-.92,3.68-.93,5.58,0,9.09.06,18.18-.05,27.27,0,1.69.23,4.34-1.69,4.43-2.21.1-1.64-2.59-1.87-4.21a24.93,24.93,0,0,1,0-3.35V970.57a24.88,24.88,0,0,1,.22-5.25c.35-1.62.85-3.32,3.13-1.87,1.58,1.88,1.33,4.17,1.36,6.37.08,5.57,0,11.13,0,16.7,0,3.15,1.27,4.65,4.54,4.63q11.2-.07,22.41,0c3.22,0,4.58-1.37,4.56-4.59,0-9.7,0-19.4,0-29.1,0-3.24-1.48-4.54-4.64-4.53-7.48,0-14.95,0-22.42,0a7.82,7.82,0,0,0-5.32,1.75c-3.8.39-4.14-.22-3.12-5.58,1.38-2,3.53-1.94,5.57-2,9-.08,18.08-.11,27.11,0,2.93,0,5.72.54,7.5,3.28a6.32,6.32,0,0,1,.71,1.67c.66,11.27.14,22.55.29,33.82.08,6,.26,6.25,6.12,6.28,6.67,0,13.34,0,20,0,2,0,4.15-.28,6,1a3.39,3.39,0,0,1,.35,4.21,3.5,3.5,0,0,1-3.09,1c-7.66-1.39-15.24.49-22.87.5-5.41,0-6.29.92-6.38,6.51-.13,7.65-.1,15.3,0,22.94,0,5.23.63,5.85,5.75,5.86,8.6,0,17.21.29,25.8-.34a37.77,37.77,0,0,0,14-.14,61.46,61.46,0,0,1,12.35-.35c3.87.12,6.62-.63,6.55-5.25A2.43,2.43,0,0,1,1673.22,1026.16Z"/><path class="cls-26" d="M1455.79,993.48l13.43.22a38.52,38.52,0,0,0,12.45-.1h0c3.84-2,4.9.37,5,3.5.28,5.69.09,11.39.1,17.09s0,11.39,0,17.09c0,1.89.12,3.83-1.2,5.43.12,2.85-1.8,3-3.82,2.77-11.33-1.33-22.78-.16-34.1-1.69a7.76,7.76,0,0,0-5.1.6.37.37,0,0,1-.15-.58c-1.56-1.86-1.54-4.11-1.54-6.34-.05-11.28.11-22.56-.1-33.84-.06-3.41.88-5,4.56-4.56C1448.82,993.48,1452.34,992.7,1455.79,993.48Z"/><path class="cls-27" d="M1514.72,1152.09a13,13,0,0,0-.18-8.43c-.53-1.36-1.17-2.86-3.09-1.76-2.46,1.41-2.7,0-3.27-2-.61-2.17-.23-5.53-3-6"/><path class="cls-27" d="M1488.44,1161c-7.25-.58-14.49-1.27-21.75-1.73-6.18-.4-6.19-.29-6.22-6.7,0-9.18-.07-18.37-.13-27.56,0-1.71.38-3.5-.73-5.07,8,1.26,16.68-.94,24.1,1.35,14.33,4.43,28.61,1.23,42.83,2.42,1.64,1.43,1.59,3.42,1.6,5.31q.13,14.82,0,29.65c0,1.89,0,3.88-1.6,5.31"/><path class="cls-28" d="M1599.4,742.82c2.78-1.84,5.9-.93,8.8-.77,3.93.22,4.82-1.29,4.76-4.94-.2-11.31-.07-22.62-.06-33.93,0-.95,0-1.91,0-2.86.24-9.25.24-9.25-9.36-9.25l-18.63-.05c1.2-5.33.55-10.75.62-16.13.12-9.38,0-18.76,0-28.14,0-2-.13-3.65,2.81-3.73,11.28-.33,22.54-1.13,33.82-.85q.09,23,.16,46c0,.77,0,2-.49,2.22-8.45,4.41-7.12,12.35-7.16,19.72,0,9.67-1.51,19.3-.85,29,.21,3-1.2,3.87-4,3.75C1606.39,742.73,1602.89,742.83,1599.4,742.82Z"/><path class="cls-29" d="M1653,595.24a80.33,80.33,0,0,0,8.06.09c3.22-.26,4.43.69,4.38,4.15-.21,13.63-.12,27.26-.14,40.89a7.23,7.23,0,0,1-4.1,1c-10.67,0-21.33-.08-32,.09-3.14,0-4.1-1-4.08-4.09.1-13.37,0-26.73-.07-40.1,1.54-2,3.79-1,5.66-1.14C1638.17,595.68,1645.6,595.51,1653,595.24Z"/><path class="cls-30" d="M1441.53,948.49c-8.23,2.19-16.61,1-24.88.67-4.23-.17-8.46-.39-12.7-.41-2.81.47-3.89-.48-3.85-3.55.17-13.48.09-27,.11-40.44l41.24-.2c1.39,1.53,1.51,3.44,1.52,5.35q.09,16.61,0,33.23C1443,945,1443,947,1441.53,948.49Z"/><path class="cls-31" d="M1527.6,691.15l-.09-47.7c3.73-2.75,8.15-2.26,11.85-1,3.1,1,6.17,1,9.2,1.65,3.64,0,7.29.26,10.92.06,3.11-.17,3.64,1.24,3.63,4-.09,14.27,0,28.54,0,42.82l-.16.28c-1.35,1.39-3.13,1.41-4.86,1.43q-12.82.14-25.64,0C1530.72,692.6,1528.92,692.59,1527.6,691.15Z"/><path class="cls-32" d="M1455.79,993.48c-3.66,0-7.33.18-11,.09-2-.06-2.54.42-2.51,2.62.18,13.87.13,27.74.16,41.61-10.39-.45-20.78-.86-31.17-1.38-1.65-.09-3.46.55-5-.73a1.18,1.18,0,0,0,1-1.3c-.13-12.58-.19-25.16-.38-37.74,0-2.67.48-4.11,3.63-4.08,14.19.13,28.38.06,42.57,0A3.13,3.13,0,0,1,1455.79,993.48Z"/><path class="cls-33" d="M1526.5,743c0,19.69,0,39.38.16,59.08,0,3.21-1.14,4-4.16,4-10.21.1-10.21.21-10.23-9.82a20.68,20.68,0,0,0-.67-6.36c-.12.73-.23,1.45-.35,2.19,0-3.64-1.85-4.67-5.29-4.31a62.76,62.76,0,0,1-8-.12c0-13.51.07-27-.09-40.54,0-3.28.92-4.48,4.3-4.37C1510.28,743,1518.39,742.91,1526.5,743Z"/><path class="cls-34" d="M1605.17,1121.86l31.42-1.86c1.09-.07,2.29.11,2.93-1.13-1.31-1.38-1.42-3.14-1.44-4.89q-.13-14.25,0-28.51c0-1.73,0-3.51,1.38-4.89l.3-1.87h.56c-.1,16.37.2,32.74-.27,49.12-.27,9.62.11,19.37.39,29.05a2.42,2.42,0,0,0,1.87,2.42c-2.68.5-2.76,2.41-2.74,4.63q.15,15.74.06,31.46c0,1.66.67,3.51-.75,5-.07-11.93-.27-23.85-.15-35.77,0-4-1.18-4.54-5-4.15-9.45,1-19,1.13-28.47,1.63-1.68-1.45-1.41-3.45-1.42-5.31-.06-9.5,0-19,0-28.51A13.93,13.93,0,0,1,1605.17,1121.86Z"/><path class="cls-35" d="M1704.65,857.79c0,13.56-.1,27.11.07,40.67,0,3.39-1.07,4.39-4.38,4.29-8.44-.26-16.9-.2-25.35-.27-2.41-1.14-2.21-3.3-1.94-5.36,1.51-11.64-1.27-23.21-.57-34.83.19-3.11-1.78-4-4.58-4.15-3.4-.22-7.06,1-10.14-1.47.15-2.07-1.81-2.5-2.85-3.65,12.35,1.05,24.72,2,37,3.21C1696.19,856.66,1700.55,856.23,1704.65,857.79Z"/><path class="cls-36" d="M1446.33,692.13a22.5,22.5,0,0,0-.88,4.66c.31,15.25-.83,30.53.69,45.77-5.24.05-10.48,0-15.72.19-2.77.12-3.61-1-3.51-3.59.16-4.13,0-8.26,0-12.39,0-2-.68-2.88-2.75-2.84-3.33.07-6.67,0-10-.07-1.23,0-2.87.24-2.83-1.64.2-10.06-1.16-20.15.67-30.18,5.7-.41,11.5,1.14,17.1-.93,5.21-2.51,10.59-1.61,15.95-.72A1.56,1.56,0,0,1,1446.33,692.13Z"/><path class="cls-37" d="M1640.32,1078.72h-.56c1.59-10.56.46-21.18.74-31.77.27-10-1.13-9.41,9.23-9.22,8.42.16,16.74-1.66,25.16-.92,0,10.65.58,21.35-.12,32-1,15.41-.58,30.81-.83,46.21,0,.91.23,1.94-.77,2.57,0-11.91-.17-23.82,0-35.72.06-3.79-.78-5.38-4.94-5.17-7.61.38-15.24.22-22.86.32C1643.54,1077,1641.5,1076.64,1640.32,1078.72Z"/><path class="cls-38" d="M1826,830.61c-1.47-4.13-.28-6.13,4.35-6.54a123.87,123.87,0,0,0,16-2.53c11-2.46,22.13-1.52,33.24-.94,3.68.2,5.16,1.56,5.06,5.55-.28,12.58-.27,25.16-.09,37.74,0,3.64-1.19,4.58-4.66,4.63-6.68.11-13.33,1.07-20,.71-2-1.69-1.6-4-1.61-6.2-.09-9.21,0-18.42-.06-27.62,0-5.44-.53-5.9-6.09-5.92a123.58,123.58,0,0,1-14.25-.76C1833.8,828.23,1829.61,827.92,1826,830.61Z"/><path class="cls-39" d="M1826,830.61c0-2.86,1.4-3.69,4.18-3.55,8.86.44,17.73.77,26.6.91,3.25,0,3,2,3,4.12q0,18.57.14,37.14c-8.07,1-16.12-.27-24.19-.26-8.36,0-8.29-.14-8.55-8.28C1826.8,850.66,1826.36,840.64,1826,830.61Z"/><path class="cls-40" d="M1685.53,723.59c0-25.12.08-50.24-.11-75.36,0-4.53,1.25-6.41,5.94-6,3.78.35,7.62.11,11.44.13-1,2.1-.78,4.35-.78,6.57,0,23.24-.13,46.49,0,69.74,0,3.88-1,5.54-5.06,5.2C1693.17,723.57,1689.35,723.67,1685.53,723.59Z"/><path class="cls-41" d="M1548.56,644.09c-7,.49-14-1.68-21-.64l-.47,0-.48.05c-3.89,1.8-7.74,2.32-11.47-.44-1.23-1.68-.69-3.66-.9-5.52-1.43-1.53-1.49-3.46-1.5-5.37-.06-10.48-.13-21,.06-31.44,0-2-.62-4.68,2.52-5.39l3.78.19c3.45,1.2,7.1-.26,10.56.81,12.32.11,12.32.11,12.33,12.43q0,13.63,0,27.27C1541.92,642.91,1541.91,642.91,1548.56,644.09Z"/><path class="cls-42" d="M1318.88,655.85c0-5.42.1-10.84,0-16.26-.07-2.47.75-3.35,3.26-3.32,9.09.1,18.17.08,27.26,0,2.11,0,2.78.84,2.78,2.82,0,11,0,22,.07,33,0,2.34-.9,3-3.11,3-9.09-.09-18.18-.13-27.26,0-2.73,0-3.12-1.17-3.07-3.44.11-5.26,0-10.52,0-15.79Z"/><path class="cls-43" d="M1685.27,991.87c-9.35-.59-9.35-.59-9.36-10.13,0-9.22.13-18.45-.1-27.66-.08-3.47.81-4.74,4.49-4.66,8.41.18,16.84-.1,25.26-.2a.81.81,0,0,1,.37.48c.27,13.53.19,27.06,0,40.59C1699.15,991.83,1692.18,991.42,1685.27,991.87Z"/><path class="cls-44" d="M1515.27,595.3c-1.63,1.36-1.07,3.23-1.07,4.92,0,12.43,0,24.86,0,37.28-7.94.53-15.8-.92-23.7-.86-3.15,0-3.12-1.8-3.12-4,0-10.14,0-20.28-.08-30.42.39-9.26.38-9.07,9.65-8.78,5.49.18,10.88,1.68,16.41,1Z"/><path class="cls-45" d="M1451,552.28c0,9.7-.25,19.41-.08,29.11.06,3.78-1.47,4.74-4.86,4.31-5-.62-10.08-1.36-15.14-1.51-3.28-.1-3.9-1.4-3.88-4.32.09-14.48,0-29,0-43.44,6.13.77,12.26,1.44,18.37,2.34,3.34.49,4.85-.16,4.82-4,0-6.12-.76-12.29.54-18.39,1.58,1.22,1.68,3,1.7,4.76.11,8.75.08,17.5,0,26.24A8.56,8.56,0,0,1,1451,552.28Z"/><path class="cls-46" d="M1735.42,591.43c.59-1.75-.52-1.69-1.73-1.76-5.22-.29-10.43-.88-15.65-.9-3.28,0-4-1.31-3.94-4.27.14-13.19.08-26.38.09-39.56,6.67-.09,13.34-.13,20-.28,2.27,0,3.06.93,3,3.14-.06,13.84,0,27.68-.06,41.51C1737.18,590.51,1737.07,591.61,1735.42,591.43Z"/><path class="cls-47" d="M1754.45,991.39c6.9-3.06,14.5-2.67,21.66-4.45,7.59-1.89,15.17,0,22.76,0,2.51,0,3.28,1.31,3.23,3.61-.2,10-.38,20-.45,30,0,2.53-.83,3.81-3.54,3.85-5.55.1-11.1.38-16.64.59-1.86-1.52-1.68-3.68-1.71-5.72-.08-6,0-12.09,0-18.13,0-6.88-.16-7-6.84-7.06-4.29,0-8.59.12-12.88-.08C1757.85,993.93,1755.39,994.18,1754.45,991.39Z"/><path class="cls-48" d="M1366.05,1252.74c-.43-1.74.68-2.32,2-2.53,13.92-2.15,27.7-5.83,42-3.38,2.85.49,3.73,1.4,3.69,4.16q-.24,15-.14,30c0,2.77-.89,4.18-3.75,4.21-5.4.06-10.8.2-16.19.3-1.91-1.72-1.57-4-1.6-6.22-.09-6.18,0-12.36,0-18.55s-.27-6.29-6.53-6.33c-4.6,0-9.2,0-13.79,0C1369.74,1254.37,1367.6,1254.53,1366.05,1252.74Z"/><path class="cls-49" d="M1366.05,1252.74c7.92,0,15.85.2,23.77,0,2.92,0,3.85.86,3.82,3.77-.1,9.66,0,19.32.1,29-8.25,1.4-16.48-.4-24.73-.14-2.1.06-1.91-1.79-2-3.16-.19-4.78-.29-9.56-.43-14.35-.72-3.52.13-7.12-.46-10.65C1366.12,1255.74,1366.09,1254.24,1366.05,1252.74Z"/><path class="cls-50" d="M1754.45,991.39c4.86,2.28,10,1,15,1.11,11.85.29,11.84.14,11.88,12,0,6.84.08,13.69.12,20.53-7.91-.09-15.82-.2-23.74-.27-1.43,0-2.5-.31-2.59-2-.54-9.94-1.09-19.88-1.57-29.82C1753.53,992.43,1754.14,991.9,1754.45,991.39Z"/><path class="cls-51" d="M1279.05,1131c-.19-1.91,1.42-2,2.52-2.17,13-1.79,25.9-5,39.25-3.16,3.35.45,4.51,1.89,4.48,4.79-.09,9.87-.3,19.73-.41,29.6,0,2.33-1.22,2.92-3.31,3-5.56.17-11.12.51-16.67.78-2.09-1.62-1.69-4-1.72-6.15-.09-6.51-.15-13,0-19.53.09-3.84-1.43-5.08-5.26-5.48C1291.64,1132,1285.25,1132.6,1279.05,1131Z"/><path class="cls-52" d="M1279.05,1131c7.91-1.5,15.76.51,23.66.35,2.72,0,2,2.36,2,4,.09,9.51.11,19,.16,28.53-7.46-.13-14.92-.29-22.39-.36-2.17,0-2.7-1.19-2.64-3C1280.2,1150.63,1278.15,1140.87,1279.05,1131Z"/><path class="cls-53" d="M1313.55,925.48c-7-.09-14-.25-20.93-.22-2.5,0-2.81-1.3-2.87-3.28-.2-7.62-.48-15.23-.73-22.85-.48-7.48-.49-7.56,6.75-8.24a95.6,95.6,0,0,1,14.26-.14c3.35.2,5.35,2,5.49,5.38.33,8.4.26,16.81,0,25.21A5,5,0,0,1,1313.55,925.48Z"/><path class="cls-54" d="M1313.55,925.48c.94-10.16.27-20.34.4-30.5,0-2.32-1.36-2.88-3.43-2.87-5.56,0-11.14.14-16.69-.2-3.89-.24-5.23,1.19-4.65,4.89a9.81,9.81,0,0,1-.16,2.34c-1.46-7.94-1.46-7.92,6-9.37,10.94-2.12,21.88-3.87,33.13-2.52,3.4.41,5.24,1.1,5.16,5-.21,9.39-.14,18.79-.06,28.18,0,2.88-.73,4.38-4,4.47C1324,925.05,1318.82,925.94,1313.55,925.48Z"/><path class="cls-55" d="M1719,593.78l1.81-.08c-1.24,1.68-.93,3.62-.93,5.5,0,12.67-.16,25.35.05,38,.06,4-1.28,5.36-5.18,5.15s-7.91,0-11.87.1c0-14.62,0-29.25-.12-43.88,0-3.07.86-4.15,4-4.16C1710.82,594.41,1715,595.27,1719,593.78Z"/><path class="cls-56" d="M1279.85,676.93c0,4.14-.09,8.28,0,12.41.07,2.32-.83,3-3.07,3-7-.11-14-.06-21,0-1.88,0-3-.39-3-2.6q.11-12.88,0-25.77c0-2.13.87-2.71,2.84-2.69,7.16.06,14.33.07,21.48,0,2.11,0,2.76.79,2.71,2.82C1279.77,668.34,1279.85,672.64,1279.85,676.93Z"/><path class="cls-57" d="M1763.25,885.49c-7.59,1-15.18-.33-22.78,0-1.3,0-2.21-.48-2.15-1.91.44-10-2-19.89-.58-29.88a120.69,120.69,0,0,1,20.37-1.3c5.08.23,6.24,1.26,6.38,6.24.21,7.46.11,14.92,0,22.38A7.27,7.27,0,0,1,1763.25,885.49Z"/><path class="cls-58" d="M1347.64,1059.32c-7.31.82-14.59-.28-21.89-.31-2.54,0-2.2-1.76-2.26-3.28-.34-7.79-.64-15.58-1-23.37-.38-5.75-.36-5.64,5.12-6.32a109.7,109.7,0,0,1,16.21-.4c2.89.08,5,1.3,5.14,4.47q.55,13.13,0,26.26A3.88,3.88,0,0,1,1347.64,1059.32Z"/><path class="cls-59" d="M1347.64,1059.32c0-9.34-.14-18.69.07-28,.07-3.38-1-4.4-4.33-4.25a116.65,116.65,0,0,1-15.19-.06c-4.35-.37-6.1,1.15-5.66,5.38-1-6.52-1-6.43,5.2-7.55,11.44-2.07,22.8-4.45,34.58-2.79,2.76.39,4.06,1.13,4,3.93q-.16,15-.26,30.1c0,1.83-1,2.56-2.7,2.53C1358.11,1058.52,1352.92,1060,1347.64,1059.32Z"/><path class="cls-60" d="M1763.25,885.49c-.06-8.89-.31-17.78-.11-26.66.09-3.83-.82-5.34-4.94-5.15-6.81.31-13.65,0-20.47,0,13.6-3.7,27.3-6.42,41.51-4.54,2.09.28,3.1,1.27,3.09,3.42q-.09,14.76-.09,29.53c0,2.65-1.63,3.07-3.76,3.1C1773.4,885.25,1768.33,885.38,1763.25,885.49Z"/><path class="cls-61" d="M1451,552.28q-.12-18-.23-35.95a59.92,59.92,0,0,1,18.52-.31q-.09,17.21-.17,34.42A104.93,104.93,0,0,0,1451,552.28Z"/><path class="cls-62" d="M1734.53,1151.36c-5.85.69-11.69-.18-17.53-.06-1.58,0-2.32-.67-2.33-2.25q-.14-12.35-.3-24.7c0-1.46.38-2.37,2.06-2.53,6-.57,11.82-2.19,17.88-1.72.28.58.19-.25.3.36A77.29,77.29,0,0,1,1734.53,1151.36Z"/><path class="cls-63" d="M1228.17,987.66c-.21-1.63,1-1.74,2.09-2,9.83-2,19.67-3.63,29.79-2.59,2.65.27,3.62,1.28,3.59,3.84-.1,7.32-.14,14.63-.07,21.94,0,2.74-1.28,3.63-3.79,3.62-3.81,0-7.62.09-11.43.14-1.78-1.54-1.62-3.68-1.66-5.71-.08-4.11-.17-8.23,0-12.34.16-3.82-1.25-5.58-5.21-5.31-2.67.18-5.37.08-8.06,0C1231.54,989.22,1229.59,989.27,1228.17,987.66Z"/><path class="cls-64" d="M1734.53,1151.36q-.12-15.63-.22-31.26c4.77-.95,9.44.41,14.17.56,2.25.07,2.39,1.59,2.39,3.28,0,7.92-.12,15.84,0,23.76,0,2.55-1.32,3.4-3.48,3.46C1743.07,1151.28,1738.8,1151.3,1734.53,1151.36Z"/><path class="cls-65" d="M1228.17,987.66c5.41.07,10.82.29,16.23.14,2.95-.08,3.85.93,3.8,3.83-.11,7,.08,14,.15,21-5.71.8-11.42-.16-17.13,0-1.84.06-2.49-.82-2.54-2.59C1228.5,1002.6,1227.68,995.14,1228.17,987.66Z"/><path class="cls-66" d="M1236.46,902.44c-.88-2.24-.84-4.2,2-4.71,8.43-1.52,16.78-3.66,25.52-2.26,3,.48,4.14,1.54,4,4.54-.28,6.52-.36,13-.5,19.57,0,1.74-.33,3.19-2.52,3.27-8.39.31-16.78,1.49-25.19.09,2.33-2.42,5.37-1.47,8.11-1.53,3.15-.07,4.7-1.21,4.6-4.52-.13-4,0-7.93-.06-11.9,0-2.54-1.24-3.78-3.79-3.78C1244.55,901.21,1240.4,900.76,1236.46,902.44Z"/><path class="cls-67" d="M1654.69,533.26c.93,3.76,0,5.52-4.38,5a114.7,114.7,0,0,0-13.76-.5c-2.44,0-3.42-.86-3.44-3.3,0-7.29-.15-14.57-.38-21.86-.08-2.43.83-3.41,3.23-3.54,3.14-.16,6.22-1.24,9.42-.53,2,2.47,1.15,5.42,1.3,8.18a54,54,0,0,1,0,7.08c-.36,4.33.7,7.45,5.66,8A4,4,0,0,1,1654.69,533.26Z"/><path class="cls-68" d="M1236.46,902.44c.4-.82,0-2.32,1.09-2.45a64.4,64.4,0,0,1,15.2,0c1.56.18,1.19,2,1.2,3.24,0,5.41-.11,10.83.06,16.24.08,2.87-1.18,3.5-3.73,3.4-3.49-.13-7,0-10.48.09-2.91.43-2.9-1.62-3-3.54C1236.7,913.74,1236.59,908.09,1236.46,902.44Z"/><path class="cls-69" d="M1225.53,874.15c0,11.54,0,11.38-11.75,11.53-3.79.05-5-1-4.75-4.8.33-4.9.19-9.83.1-14.74-.05-2.45.83-3.37,3.33-3.25a54.3,54.3,0,0,0,9-.19c3.56-.41,4.39,1.15,4.09,4.32C1225.35,869.37,1225.53,871.77,1225.53,874.15Z"/><path class="cls-70" d="M1633.48,566c0,9,0,9-9,9-9.39,0-9.39,0-9.43-9.6,0-8.82,0-8.82,8.88-8.84C1633.52,556.57,1633.52,556.57,1633.48,566Z"/><path class="cls-71" d="M1866.5,729.76c3.52-.77,6.89.69,10.37.74,2,0,2.14,1.51,2.13,3,0,6.51-.12,13,0,19.51,0,2.41-.88,3.35-3.27,3.53a133.31,133.31,0,0,1-22.25,0c1.88-2.4,4.6-1.72,7-1.73,3.25,0,4.52-1.47,4.49-4.62,0-4.89-.06-9.79,0-14.69C1865,733.49,1864.76,731.35,1866.5,729.76Z"/><path class="cls-72" d="M1389.9,1196.57c4.28,0,8.56.06,12.83-.06,2.4-.07,3.47.76,3.42,3.27-.1,4.92-.11,9.84,0,14.75.07,2.62-1.21,3.25-3.48,3.19-4.28-.12-8.55-.13-12.83-.19A29.35,29.35,0,0,1,1389.9,1196.57Z"/><path class="cls-73" d="M1389.9,1196.57l0,21c-5.21.23-11.82,2.23-15.23-.6s-.52-9.58-1.15-14.56,1.14-6.56,6-6A100.83,100.83,0,0,0,1389.9,1196.57Z"/><path class="cls-74" d="M1866.5,729.76c0,7.58-.08,15.17.08,22.76.06,2.8-.68,4-3.69,3.84s-6.3.1-9.45.18a3.66,3.66,0,0,1-.69-2.79c-.57-6.66.08-13.34-.34-20A47.44,47.44,0,0,1,1866.5,729.76Z"/><path class="cls-75" d="M1314,794.48c-1.87-6.52-.35-13.17-.69-19.76-.1-2,1.48-2.11,3-2.16a155.45,155.45,0,0,1,20,.69c2.18.21,2.59,1.31,2.57,3.13-.06,5.1,0,10.19-.08,15.28,0,1.76-.13,3.78-2.69,3.61-7.26-.48-14.56.78-21.79-.62,1.75-1.88,4.11-1.59,6.28-1.53,3.57.12,4.83-1.56,4.67-4.94a85.07,85.07,0,0,1,0-8.6c.18-3.53-1.35-4.79-4.81-4.76s-5,1.35-4.84,4.83c.11,3.18.08,6.38,0,9.56C1315.5,791.1,1315.69,793.1,1314,794.48Z"/><path class="cls-76" d="M1773,643.49c-9.16,0-9.16,0-9.14-9.35,0-7.73,0-7.73,8-7.85,10.55-.16,10.55-.16,10.45,9.88C1782.18,643.53,1782.18,643.53,1773,643.49Z"/><path class="cls-77" d="M1360.33,966.39c0-2.23,0-4.45,0-6.68.09-9.31.09-9.31,9.65-9.28,3.18,0,6.36,0,9.54,0,.75,0,1.7,0,1.73,1.12s-.92,1-1.66,1.17c-.31,0-.63,0-.95,0-5.76.43-7.65,3.37-6.12,9.07.54,2,1.94,1.77,3.32,1.79,3.34.05,6.68,0,10,.07.89,0,2.11-.08,1.94,1.33-.12,1-1.15.92-1.9.92-3.34,0-6.69.19-10,0-2.54-.15-3.37.79-3.29,3.25.11,3.65-.13,7.31-.06,11,0,2.05-.72,2.67-2.77,2.8-9.52.63-9.51.7-9.54-9v-7.63Z"/><path class="cls-78" d="M1230,823.89c-12.54.93-12.54.93-12.53-11.52,0-11.06,0-11.06,11-10.27.79,0,1.59.06,2.38.08C1231.41,809.45,1232.56,816.75,1230,823.89Z"/><path class="cls-79" d="M1230,823.89c.4-7.23-1-14.54.89-21.71,11.62-1,11.62-1,11.56,10.18v.48C1242.39,825,1242.39,825,1230,823.89Z"/><path class="cls-80" d="M1760.32,674.44c0,8.21,0,8.21-8.18,8.22-1.43,0-2.86-.11-4.28,0-2.21.14-3.13-.7-3.06-3,.12-3.64,0-7.28,0-10.93,0-.31-.12-.71,0-.93,3.18-4.7,7.92-1.41,11.86-2.25,1.91-.41,3.89-.24,3.68,2.73C1760.2,670.32,1760.32,672.38,1760.32,674.44Z"/><path class="cls-81" d="M1294.24,715.17c.21-7.82-1.66-7.8,7.67-7.76,8.5,0,8.59.15,8.52,8.38s-.07,8.15-8.26,8.15C1293.1,723.93,1294.2,725.14,1294.24,715.17Z"/><path class="cls-82" d="M1294.45,957.63c-.11,8.54-.11,8.54-8.65,8.57-7.37,0-7.37,0-7.37-7.71,0-9.11,0-9.11,9-9C1294.55,949.66,1294.55,949.66,1294.45,957.63Z"/><path class="cls-83" d="M1654.69,533.26c-9.32-.93-9.31-.93-9.3-9.93q0-7.4,0-14.79c11.79,1.47,9.32-.83,9.54,10.05C1655,523.47,1654.78,528.37,1654.69,533.26Z"/><path class="cls-84" d="M1821.6,938.18c1.43,0,2.86.08,4.27,0,2.27-.16,2.91.86,3.06,3.05.75,11.18.81,11-10.25,11.19-3.79.05-5.73-.8-5.06-4.89a9.63,9.63,0,0,0,0-1.42C1813.54,938.13,1813.54,938.13,1821.6,938.18Z"/><path class="cls-85" d="M1809.08,622.2c.2-8.78-1.4-6.91,9.18-7.63,6.42-.43,4.93,3.57,5,6.95,0,8,0,8-8.19,7.94C1807.76,629.43,1809.22,629.9,1809.08,622.2Z"/><path class="cls-86" d="M1734.15,752.88c0,4.42,1.7,10.21-.46,12.89s-8.31.71-12.7.87c-3.17.11-6.36.09-9.53,0-1.29,0-3.37.68-3.38-1.4,0-1.68,1.92-1.15,3.11-1.2,9.54-.36,9.54-.35,9.55-10.17,0-2.07-.1-4.14,0-6.2.22-3.11-1.51-7.79.68-9,3-1.6,7.36-.61,11.14-.74,2.33-.08,1.88,1.63,1.89,3,0,4,0,7.94,0,11.91Z"/><path class="cls-87" d="M1234.69,745.6c-11.53.82-11.3.82-11.54-10.16-.1-4.34,1.28-5.71,5.37-5.15a60.46,60.46,0,0,0,6.18.24A17.15,17.15,0,0,1,1234.69,745.6Z"/><path class="cls-88" d="M1726.57,1068.59c-9.72,0-9.72,0-9.72-9.58,0-8.71,0-8.71,8.79-8.72,10.41,0,10.41,0,10.37,10C1736,1068.6,1736,1068.6,1726.57,1068.59Z"/><path class="cls-89" d="M1393.82,690c8.52.73,8.52.73,8.5,9.44,0,6.89,0,6.89-7.12,7a11.23,11.23,0,0,1-1.42,0c-3.81-.4-9.55,2.07-11-1.25-1.89-4.35-1.77-10.08.21-15.11l.57.5c1.45,3,.74,6.26.85,9.4.09,2.65.93,4.18,3.89,4.19s3.93-1.37,4-4.09c0-3-.38-6.05.51-9A2.19,2.19,0,0,1,1393.82,690Z"/><path class="cls-90" d="M1695.62,1195.35c0-5.55-.1-11.11.07-16.66,0-1.42,1.64-1.2,2.72-1.21,8.61-.07,17.22-.06,25.82-.2,2.38,0,3,1,2.94,3.14a78.72,78.72,0,0,0,.06,8.13c.12,2.2-.82,2.77-2.84,2.6a31.45,31.45,0,0,0-5.74,0c-2.93.29-3.79-.81-3.78-3.77,0-7.69-.14-7.69-7.8-7.69-9.68,0-9.64,0-9.68,10C1697.38,1191.56,1698,1193.63,1695.62,1195.35Z"/><path class="cls-91" d="M1258.93,760.88c-9.15,0-9.15,0-9.13-9.09,0-8.67,0-8.67,8.66-8.61,9,.07,9,.07,9.21,9.2C1267.85,760.87,1267.85,760.87,1258.93,760.88Z"/><path class="cls-92" d="M1450.89,1300.18c-.12,6.81-.11,6.78-8.31,6.62-7.51-.15-3.13-5.76-3.82-8.78-1.28-5.72,3.49-4.34,6.38-4.4C1451,1293.52,1451,1293.69,1450.89,1300.18Z"/><path class="cls-93" d="M1400.65,785.84c0,8.58,0,8.29-8.64,8.73-4.76.24-6.89-1-5.94-5.91a10,10,0,0,0,0-1.9c0-10.37,0-10.2,9.89-10.4,3.72-.08,5.25.95,4.7,4.74A34.06,34.06,0,0,0,1400.65,785.84Z"/><path class="cls-94" d="M1538.26,550c0-4.93.09-9.86,0-14.79-.07-2.77.85-4.16,3.81-4,3.65.15,7.31.06,11,.13.77,0,1.75.05,1.9,1,.2,1.31-1,1.57-1.83,1.62a68.48,68.48,0,0,1-8.1.15c-2.92-.18-3.89,1-3.86,3.85.1,9.06.05,18.12,0,27.18,0,1.38.8,3.8-1.54,3.73-1.77-.05-1.19-2.29-1.21-3.62-.07-5.08,0-10.17,0-15.25Z"/><path class="cls-95" d="M1705.29,1005.81c0-6.35,0-6.35,6.22-6.37,5.56,0,11.14.09,16.7-.07,3.24-.09,4.79,1,4.44,4.41a30.39,30.39,0,0,0-.07,4.77c.13,2.54-1.13,3.4-3.49,3.25a23.64,23.64,0,0,0-4.29,0c-3.24.37-4.44-1.18-4-4.16.73-4.56-1.35-6-5.56-5.37a16.27,16.27,0,0,1-3.82,0c-2.57-.27-4,.56-3.61,3.4a7.53,7.53,0,0,1,0,2.37c-.25,1.23.78,3.4-1.42,3.32-1.61-.06-1-2-1.1-3.17A23.8,23.8,0,0,1,1705.29,1005.81Z"/><path class="cls-96" d="M1589.37,569.47c9.43,0,9.43,0,9.4,9.28,0,8.33,0,8.33-8.41,8.34-11.11,0-11.11,0-11.1-10.94a24.65,24.65,0,0,0,0-3.33c-.38-2.77.81-3.63,3.46-3.39C1584.9,569.63,1587.14,569.47,1589.37,569.47Z"/><path class="cls-97" d="M1818.7,909.66c-8.28,0-7.78,1-7.75-5.52,0-10.82-1-8.9,8.67-9.1,3.17-.06,7.1-1.55,6.83,4.63C1826,909.6,1826.38,909.62,1818.7,909.66Z"/><path class="cls-98" d="M1262.11,616.92c0-8.74,0-8.78,8.83-8.76,9.61,0,8-.86,8,8.1,0,9.9,0,9.9-9.47,9.86C1262.08,626.08,1262.08,626.08,1262.11,616.92Z"/><path class="cls-99" d="M1292.68,1094.38c-7.88,0-8,0-7.84-9.71.1-7-1.32-5.4,10.24-6.09,6.12-.37,5.17,3.25,5.17,6.81C1300.25,1094.38,1300.25,1094.38,1292.68,1094.38Z"/><path class="cls-100" d="M1801.94,698.92c0,3.35.06,6.69,0,10,0,1.23.85,3.34-1.43,3.27-1.87-.05-1.08-2-1.1-3.07-.1-5.57-.33-11.16,0-16.71.25-4-1.33-4.87-4.89-4.62-3.8.27-7.63.07-11.45.08-1.09,0-2.51.28-2.65-1.23-.17-1.77,1.39-1.35,2.4-1.35,5.41,0,10.82.11,16.23,0,2.46-.07,3,1,2.9,3.14-.09,3.5,0,7,0,10.5Z"/><path class="cls-101" d="M1366.33,746c-3.57,0-7.62,1.67-7.21-5,.7-11.42-1.07-9.89,7.83-9.89,8.37,0,7.25-1.33,7.28,7.78C1374.26,747.34,1375.22,746,1366.33,746Z"/><path class="cls-102" d="M1756.69,733.24c-7.43,0-7.9,0-7.25-6.54.27-2.74-3.76-8.08,2.82-8.39,11.31-.53,11.32-.28,11.36,9.31C1763.65,733.2,1763.65,733.2,1756.69,733.24Z"/><path class="cls-103" d="M1601.58,535.14c-1.35,2,3.07,7-3.87,6.85-10.92-.26-10.92,0-10.94-4.93,0-9.57,0-9.57,8.68-9.62C1601.54,527.41,1601.54,527.41,1601.58,535.14Z"/><path class="cls-104" d="M1750.37,793.79c-.06,4.75,1.31,8.63-5,8.19-8.39-.58-8.14-.16-8.51-9.24-.3-7.58,5.16-4.17,8.19-4.47C1750.33,787.76,1750.36,788.13,1750.37,793.79Z"/><path class="cls-105" d="M1263.26,786.28c0,1.66-.1,2.94,0,4.2.23,2.47-.79,3.21-3.26,3.32-8.78.38-8.84.49-8.73-8.25,0-1.86-1.28-4.84,1.39-5.37a19.78,19.78,0,0,1,9.83.29C1264.41,781.13,1262.86,784.54,1263.26,786.28Z"/><path class="cls-106" d="M1722.06,1232.63c-6.78-.09-6.39-.11-6.8-7-.36-6.23,3.69-4.73,7.15-5.12,6.26-.69,4.7,3.67,5.1,7.12C1728.09,1232.72,1725.35,1233.25,1722.06,1232.63Z"/><path class="cls-107" d="M1714.21,1263.15c.52-1.91-1.25-5.2,1.06-6.27,3.1-1.42,6.84-.55,10.31-.37,1.24.06,1.37,1.1,1.4,2.08,0,1.27.07,2.54,0,3.8-.28,9.1,1.81,8.14-8.31,8.42-3.42.1-5.14-.78-4.52-4.48A20.67,20.67,0,0,0,1714.21,1263.15Z"/><path class="cls-108" d="M1651.44,775.84c10.25.8,10.32.8,10.15,10.9,0,1.82,1.23,5.17-1.34,5.16s-1.17-3.38-1.42-5.28a17.78,17.78,0,0,1,0-3.79c.23-2.63-.8-3.83-3.52-3.63-1.73.13-3.48,0-5.23,0-2.06,0-2.73-1.35-2.68-3.14.06-2-.48-4.31,1.92-5.37a2.88,2.88,0,0,1,3.16.32C1654.3,772.8,1651.49,773.93,1651.44,775.84Z"/><path class="cls-109" d="M1713.93,831.38c0-4.55,0-9.1,0-13.65,0-1.73,1.24-2,2.62-2q10,0,20,0c.94,0,2.25,0,2.27,1.15,0,1.53-1.47,1.4-2.52,1.41-5.4.06-10.81.23-16.2,0-3.21-.14-4.09,1-4,4.09s.43,6.14-.53,9.06Z"/><path class="cls-110" d="M1855.21,787c-.17,7.79.9,6.64-5.91,6.66-8.75,0-7.17.49-7.13-6.46,0-8.5-1.14-6.77,8.07-7C1855.23,780.13,1855.23,780.23,1855.21,787Z"/><path class="cls-111" d="M1700.76,1273.24c.27,3.18.19,5.59-4.2,5.61-4.81,0-4.19-2.94-4.4-6-.24-3.35.64-4.72,4.38-4.83C1700.92,1267.91,1701.18,1270.12,1700.76,1273.24Z"/><path class="cls-112" d="M1369.44,1109.82c0-4.8-.47-9.67.16-14.39.46-3.52,4.48-.51,6.49-2.4-.93-1.2-4.28,1-3.6-2.33.5-2.43,2.48-1.56,3.85-1.54,3.5,0,7.08-.61,11,.6-1.46,2-3.11,1.5-4.54,1.66-1.07.11-3-.22-3,.69.18,5-3.27,4-6.1,4.05-2.5.06-2.12,1.91-2.15,3.4-.07,3.4,0,6.81,0,10.21Z"/><path class="cls-113" d="M1234.69,745.6q0-7.53,0-15.07c4.25-1,6.27.48,5.72,5a22.83,22.83,0,0,0,0,5.16C1240.87,745.23,1239,746.81,1234.69,745.6Z"/><path class="cls-114" d="M1383.86,835.62c2.21,1,7-1.91,7.21,1.61.18,2.48-4.86,1.1-7.51,1.18-6.91.23-6.92.07-7,7.07a19.33,19.33,0,0,1,0,2.85c-.16,1.1.67,3-1.25,2.95-1.71-.08-1-2-1.16-3.11a22.72,22.72,0,0,1-.05-2.86C1374.05,835.69,1374.05,835.69,1383.86,835.62Z"/><path class="cls-115" d="M1669.17,1293.29c-4,1.17-5.27-1-5.06-5.53.27-6.17,0-6,6.63-6.29,3.61-.13,5.93.06,5.65,4.87C1675.89,1294.86,1676.53,1293,1669.17,1293.29Z"/><path class="cls-116" d="M1361.12,1177.92c-.68-3.45.77-4.34,4.1-4.48,4.21-.19,4.67,1.9,4.57,5.18-.07,2.46-.09,4.29-3.51,4C1363,1182.4,1360,1182.56,1361.12,1177.92Z"/><path class="cls-117" d="M1358.43,822.51c3.38-1,6.89-.61,10.32-.5s4.76-.81,4.61-4.51c-.16-4.09-.73-8.33.59-12.35l1.44,0c0,6,0,11.93-.06,17.9,0,.39-.82,1.1-1.26,1.1-5.22.08-10.44,0-15.66,0Z"/><path class="cls-118" d="M1842.49,704.43c-.59-3.25.55-4.52,3.76-4.47,2.85.06,3.92,1,3.84,3.91-.08,2.64-.21,4.61-3.72,4.5C1843.38,708.29,1841.69,707.54,1842.49,704.43Z"/><path class="cls-119" d="M1746.51,1087.21c3.82-.67,3.79,1.61,4,4.22.27,3.55-1.67,3.59-4.34,3.69-3.74.15-3.32-2.19-3.45-4.61C1742.53,1087.38,1744,1086.6,1746.51,1087.21Z"/><path class="cls-120" d="M1256,870.82c.4,2.77-.32,4.26-3.49,4.2-2.93-.06-4.44-.75-4.31-4.06.1-2.68.59-4.09,3.72-4C1254.85,867,1256.65,867.51,1256,870.82Z"/><path class="cls-121" d="M1324,757.45c.61,2.95-.65,3.8-3.59,3.85-3.14.05-4.23-.87-4.08-4.06.13-2.87.69-4.25,4-4.26C1323.93,753,1324.3,754.71,1324,757.45Z"/><path class="cls-5" d="M1706,990.29c-.48-13.53-.46-27.06,0-40.59,1.16,7.06.42,14.17.48,21.25C1706.46,977.39,1707.13,983.87,1706,990.29Z"/><path class="cls-122" d="M1313.29,578.55c1.8,0,2.78.67,2.75,2.5s-1.22,2.23-2.79,2.22-2.21-.66-2.25-2.23C1311,579.26,1311.67,578.43,1313.29,578.55Z"/><path class="cls-71" d="M1852.41,733.76a129.57,129.57,0,0,1,.34,20A106.83,106.83,0,0,1,1852.41,733.76Z"/><path class="cls-48" d="M1366.16,1257.24c1.08,3.51.65,7.1.46,10.66A33.2,33.2,0,0,1,1366.16,1257.24Z"/><path class="cls-44" d="M1529.61,596.3c-3.54,0-7.16,1-10.56-.82A29.37,29.37,0,0,1,1529.61,596.3Z"/><path class="cls-33" d="M1511.23,797c.06,3.5.13,7,.19,10.49a.42.42,0,0,1-.43.21C1510.78,804.16,1510.43,800.58,1511.23,797Z"/><path class="cls-89" d="M1383,690.07a19.73,19.73,0,0,1,10.83-.12l-.36.4a10.36,10.36,0,0,1-10.16.06Z"/><path class="cls-123" d="M1446.33,692.13c-5.62-2.25-11.48-.39-17.19-1-.07-15.13-.1-30.25-.24-45.37,0-2.42.75-3.39,3.28-3.38,11.14.09,22.29.14,33.43-.06,3.63-.07,3.67,1.87,3.66,4.5-.06,13.21.11,26.43-.12,39.64-.07,3.82,1.09,5,4.85,4.77,4.11-.29,8.27,0,12.41,0,0,.32,0,.65,0,1Z"/><path class="cls-124" d="M1515.09,643l11.47.44c0,14.32-.12,28.65.12,43,.07,3.88-1.19,5.08-4.87,4.77a53.75,53.75,0,0,0-9.06,0c-3.44.28-4.29-1.16-4.26-4.4.13-14.48,0-29,0-43.44Z"/><path class="cls-125" d="M1565.85,902.56a46,46,0,0,0-11.74,1.44c4.15,1.43,8.33-.64,11.93,1.46,1.26,1.59,1.35,3.5,1.36,5.4,0,11.06,0,22.12,0,33.18a23.59,23.59,0,0,1-1.06,5.55q0,104.05,0,208.12c0,1.91.08,3.82-.08,5.73a1,1,0,0,1-1.55.45c-1.21-1.44-1.27-3.21-1.27-4.94,0-12-.19-24,.07-36-.2-10.94,0-21.88-.08-32.82,0-8,0-7.92-7.79-8-8.87-.1-17.75.36-26.62-.25a5.69,5.69,0,0,1-2.47-1.16l-.69-1.12c.28-14.47.45-28.91-.27-43.4-.68-13.65-1.12-27.39.45-41.05a23.3,23.3,0,0,0,.19-3.34c-.61-28.36,1.86-56.71.87-85.06-.54-15.46-.17-30.9-.51-46.34-.08-3.82,1-5.22,5.11-5.26,11.44-.09,22.87-.71,34.32-.55,1.38,1.57,1.36,3.52,1.37,5.42q.09,18.59,0,37.17C1567.38,899.12,1567.33,901.06,1565.85,902.56Z"/><path class="cls-126" d="M1525.54,1038.54c-1.61,1.25-3.6.9-5.68,1.37,4.28-.06,5,2.09,4.94,5.78-.29,9.71-.13,19.42-.09,29.13,0,2.25,0,4.44-3.18,3.84-9.64-1.82-19.35-.69-29-.73-4.63,0-6.37-.89-6.2-6,.41-11.77.11-23.56.09-35.34-1-10.27-.16-20.57-.41-30.85-.07-3,.16-6-.06-9s1.16-4.5,4-4.52c10.94-.08,21.88-.72,32.79.68a4,4,0,0,1,3.24,1.69c.3,14.24.09,28.48.11,42.71C1526.12,1037.83,1525.78,1038.14,1525.54,1038.54Z"/><path class="cls-127" d="M1525.67,994.55c-11.83-1.38-23.7-.75-35.56-1-3.55-.08-3.75,1.75-3.74,4.45.07,12.88,0,25.76,0,38.64-.26,0-.53.05-.78.09,0-13-.16-25.93-.1-38.9,0-2.87-.48-4.69-3.84-4.21V949.54c1.49-1.53,3.46-1.48,5.36-1.5,11-.07,22-.11,33,0,6,.06,6.68.79,6.6,6.62-.16,13.05.51,26.1-.35,39.14C1526.07,994.06,1525.87,994.31,1525.67,994.55Z"/><path class="cls-128" d="M1564.85,1122.77q0,20.57.05,41.12c-1.46,1.57-3.43,1.52-5.31,1.54q-13.77.12-27.55,0c-1.9,0-3.83-.08-5.33-1.54l-.17.09v-40.27q0-21.49,0-43l2,0c1.74,2,1.44,4.48,1.45,6.84.06,9.72,0,19.44,0,29.16.05,5,.56,5.26,5.53,5.55,7.51.45,14.93-1,22.41-1C1560.38,1121.33,1562.85,1121,1564.85,1122.77Z"/><path class="cls-129" d="M1525.54,1038.54q.06-22,.13-44h.2c.15-15.9,1.08-31.8-.53-47.7-.74-7.28-.15-14.66-.2-22,0-4.15,0-8.3,0-12.45-.08-5.87-.46-6.23-6.24-6.32a53.29,53.29,0,0,1-6.69-.17c-1.42-.21-3.37.1-3.52-2.24,4.62,0,9.26-.21,13.86.05,3.17.18,3.5-1.09,3.47-3.86-.18-15-.12-30-.14-45,12.09-.46,24.17-.9,36.25-1.39a21.23,21.23,0,0,0,3.22-.61l1.53,0c.63.46,1.34,1,.84,1.83a1.36,1.36,0,0,1-2,.22c-11.44,1.08-22.9,1-34.36.8-3.54-.05-3.79,1.7-3.76,4.43.2,17.19-.1,34.37.89,51.55a229.12,229.12,0,0,1,0,29.18c-1.18,17-.08,34.07-1,51-1.51,27.73-.25,55.45-.82,83.16,0,1.53.56,3.22-.78,4.54Q1525.7,1059.08,1525.54,1038.54Z"/><path class="cls-130" d="M1605.18,907.5c.22-2.3,1.71-2.62,3.69-2.63,9.84,0,19.68,0,29.52-.3,3.58-.11,4.13,1.42,4.11,4.5-.08,10.95.08,21.9.15,32.85,0,1.9,0,3.81,0,5.71a2.27,2.27,0,0,1-.21,2.91l-.41.05a7.62,7.62,0,0,1-4.49,1.34c-10,.14-20-.18-30,.46a6.25,6.25,0,0,1-1.56-.91l-.21-.1c-1.48-3.81-1.22-7.79-1.28-11.76-.14-9.37.43-18.75-.37-28.11C1604.06,910.07,1604,908.63,1605.18,907.5Z"/><path class="cls-131" d="M1607,951.6c11.62-2,23.35-.51,35-1-1,11.29-.19,22.61-.47,33.91-.07,2.7-.07,5.41-.11,8.12-10.91,1.08-21.86.18-32.79.46-1.71,0-2.13-1-2.1-2.44C1606.85,977.62,1606,964.6,1607,951.6Z"/><path class="cls-132" d="M1607,951.6c0,12.1.17,24.2-.07,36.3-.08,3.89,1.21,4.87,4.9,4.79,9.86-.22,19.74-.08,29.61-.08,1.4,1.59,3.27,1,5,1,7.34,0,14.69.22,22-.12,4-.18,4.83,1.31,4.76,4.95-.19,9.24,0,18.49,0,27.74-.31,8.56-.31,8.56-8.83,8.63l-11.41.08c-16.23.72-13.56,1.9-13.77-11.91-.14-9.77-.2-19.54.52-29.29-9.53,0-19.07-.2-28.6,0-3.8.08-5.3-.84-5.21-5,.27-12.4.11-24.81.12-37.21Z"/><path class="cls-133" d="M1642.45,950.54l.21-2.91h27.12c1.11,0,2.22,0,3.32.06.83.05,1.65.34,1.71,1.29.09,1.3-.94,1.51-1.91,1.53q-5.72.06-11.42.06Z"/><path class="cls-134" d="M1508.67,903.68c4.79,1.58,9.73.54,14.6.8,2.38.13,3.38.84,3.38,3.36q-.06,42.28,0,84.56a7.11,7.11,0,0,1-.76,2.15c0-13.5-.23-27-.09-40.5,0-3.54-1-4.65-4.55-4.6-13.18.2-26.37.09-39.55.09h0c-5.73-1.3-11.58.27-17.32-.82l-22.81-.21q0-22-.08-43.94c11.75-.94,23.52-1.1,35.3-.92,3.61.05,4.94-.75,4.84-4.71-.3-12.73-.16-25.47-.18-38.21.17-1.39.34-2.78.55-4.48,2.21,1.27,1.63,3.17,1.58,4.71-.43,13.35,1,26.73-.75,40-.37,2.8,1.66,2.58,3.42,2.59Z"/><path class="cls-135" d="M1564.09,742.91c1.63,1.39.88,3.27.89,4.91.06,17.14,0,34.27,0,51.41,0,1.9-.17,3.81.58,5.63l-.47.5-1-.52Q1564.09,773.88,1564.09,742.91Z"/><path class="cls-14" d="M1527.6,691.15l35.34.05a7.09,7.09,0,0,1,1,3.6q.06,22.79.15,45.57a13.5,13.5,0,0,1-.39,2.33l-36.89,0q0-23.45-.09-46.89A9.32,9.32,0,0,1,1527.6,691.15Z"/><path class="cls-136" d="M1464.34,948.71c5.78.17,11.62-1.1,17.32.82C1475.89,949.07,1470.05,950.37,1464.34,948.71Z"/><path class="cls-136" d="M1481.66,949.53c-4.14,1.58-8.29,1.26-12.45.11Z"/><path class="cls-137" d="M1526.71,1163.89h38.19a3.75,3.75,0,0,0,.82,0c1.27,1.54,1.63,3.14.35,4.85-.08,3.17-.18,6.34-.23,9.51q-.57,33.49-1.11,67c-1.29-1.53-.72-3.36-.73-5,0-10-.13-20,0-30.07,0-3.11-1-4.22-4.09-4.12-6.2.18-12.4,0-18.61,0-4.91,0-9.83.27-14.66-1Q1526.69,1184.48,1526.71,1163.89Z"/><path class="cls-138" d="M1566.07,1168.74c-.12-1.61-.23-3.23-.35-4.85,0-15.92.15-31.83.15-47.75q0-83.34,0-166.69c.38-.36.7-.34,1,.13,1.12,1.38-2.31,4.53,1.84,4.74a8,8,0,0,1,0,9.59c-3-.9-1.75,1.53-1.76,2.5-.1,8.45-.06,16.9-.06,25.35q0,83.91,0,167.84v4.21h.89c0-11.53,0-23.07,0-34.6,0-1.61-1.15-4.13,2.06-4.38.8,10,.13,20,.35,30a44.71,44.71,0,0,0,.15,4.77c.22,1.72,1.17,2.65,2.89,2.39,7.28-1.09,14.65.1,21.92-1,6.5-.94,6.52-1,6.55-7.38,0-7.8,0-15.6,0-23.4,0-2.19-.32-4.5,1.32-6.38.69-.69,1.39-1.37,2.09-2.05q0,20.12,0,40.24a1.28,1.28,0,0,0-.26.65c-10.59.71-21.17,1.59-31.77,2-3.52.15-4.63,1.19-4.56,4.73.22,10.33.11,20.66.06,31,0,1.66.52,3.47-1,5.31-1.61-1.61-1-3.54-1.11-5.23C1566.25,1190,1567.27,1179.34,1566.07,1168.74Z"/><path class="cls-13" d="M1565,1286.25c-1.65-1.37-.88-3.24-.89-4.87-.08-11.05,0-22.1-.06-33.15l.69-.13Q1564.86,1267.18,1565,1286.25Z"/><path class="cls-139" d="M1565.69,854.91c1.49,0,1.82-.77,1.17-2,16.5.83,33,2.41,49.52,2a6.14,6.14,0,0,1,2.14.81c-3.91.48-9-1.7-11.5.9-2.68,2.77-.85,7.88-.91,12q-.19,14.79,0,29.6c0,3.14-.64,4.69-4.18,4.47-9-.55-18.1.61-27.14-.72-2.9-.42-6,.41-9,.67Q1565.78,878.74,1565.69,854.91Z"/><path class="cls-140" d="M1657.76,856.67c4,0,8,.14,12,0,3-.09,4.52,1,4.32,4.15-.66,10.67.92,21.27,1,31.92,0,3.25-2.43,6.49-.06,9.72-9.88,0-19.77-.05-29.65.18-3.38.08-3.94-1.37-3.92-4.27.09-13.88,0-27.75,0-41.63Z"/><path class="cls-141" d="M1566.86,949.58l-1-.13.15-44c9.2,0,18.39.06,27.58.15a33.08,33.08,0,0,1,11.57,1.89c1.3,14.61.34,29.26.65,43.88a5,5,0,0,0-4.2-2.55c-11.2,0-22.4,0-33.59.07C1567.64,948.9,1567.25,949.34,1566.86,949.58Z"/><path class="cls-142" d="M1568.71,963.91c0-3.19,0-6.39,0-9.59-.08-2.39,1.31-2.81,3.36-2.8,9.23.05,18.46.08,27.68-.08,3.08-.05,3.67,1.3,3.64,4q-.21,16.69-.08,33.41c0,2.79-.75,4-3.74,4q-13.61-.18-27.2,0c-2.76,0-3.55-1.06-3.53-3.67C1568.89,980.77,1568.77,972.34,1568.71,963.91Z"/><path class="cls-143" d="M1551.7,1011.7c0-5.58.1-11.16,0-16.73-.07-2.58.59-3.71,3.44-3.66,9.08.17,18.17.15,27.25.07,2.53,0,3.72.56,3.68,3.44-.15,11.16-.12,22.32,0,33.47,0,2.56-.63,3.8-3.41,3.81-9.25.05-18.49.22-27.73.45-2.73.07-3.11-1.45-3.09-3.63,0-5.74,0-11.48,0-17.22Z"/><path class="cls-144" d="M1568.69,1084.52c3.93-2.28,8.33-1.07,12.49-1.51,6.14-.66,12.38-.37,18.58-.47,1.64,0,3.28-.08,3.26,2.32-.08,11.76-.13,23.51-.22,35.27,0,.25-.37.49-.57.73-9.42,1.32-18.81,3.05-28.4,2.55a3.59,3.59,0,0,1-2.19-.69c-1-.26-2.21.29-2.9-.91A329,329,0,0,1,1568.69,1084.52Z"/><path class="cls-145" d="M1603.08,1123.91c0,11.45,0,22.91.16,34.36,0,2.67-.91,3.29-3.46,3.79-9.13,1.79-18.42.2-27.54,1.73-2.19.37-3.58-.29-3.56-3,.1-11,0-22,0-32.94a4,4,0,0,1,1.16-3l1.78-.06a4.11,4.11,0,0,1,2.55-1.22c9.64-.26,19.29-.79,28.92.35Z"/><path class="cls-146" d="M1639.46,1080.58l.06,38.29c-9.55.07-19.1,0-28.63.28-3.63.1-4.71-1.26-4.67-4.7.11-10,0-20,0-30.07,0-2.1-.17-4.41,2.9-4.45q14.07-.15,28.15-.16A7,7,0,0,1,1639.46,1080.58Z"/><path class="cls-147" d="M1568.6,1060.18c0-5.09.12-10.19,0-15.28-.09-2.71.89-3.58,3.58-3.56,8.91.1,17.83.1,26.75-.13,3.31-.09,4,1.31,4,4.24q-.12,14.57.06,29.13c0,2.63-.43,4.1-3.6,4.14-8.91.12-17.82.47-26.72.9-2.84.14-4-.65-3.93-3.67.19-5.25.06-10.51.06-15.77Z"/><path class="cls-148" d="M1639.59,1034.54c-10.23,2.08-20.57.62-30.86.89-2.1,0-2.5-1.61-2.49-3.34,0-10.17,0-20.34.12-30.52,0-3,1.3-4.5,4.7-4.32,9.49.49,19-1.71,28.5.23,1.1,7.43.34,14.9.42,22.34C1640,1024.72,1640.56,1029.66,1639.59,1034.54Z"/><path class="cls-149" d="M1637.76,1075.72l-5.07.36a248.47,248.47,0,0,1-26.32,0c-.79-11.1-.19-22.2-.4-33.3,0-2.38,1.26-3,3.28-3,4.45-.1,8.89-.27,13.34-.41a88.73,88.73,0,0,1,14.94-.07.81.81,0,0,1,.38.35C1638.17,1051.65,1638.46,1063.69,1637.76,1075.72Z"/><path class="cls-138" d="M1603.12,1123.89c-10.49.28-21,1.24-31.47.87,0-.68,0-1.36,0-2,10.16-1.25,20.38-1.49,30.59-1.86-2.22,2.1-5.25.15-7.73,1.45C1597.28,1123.83,1600.65,1121.33,1603.12,1123.89Z"/><path class="cls-37" d="M1639.59,1034.54l0-37.06c.06-1.27.11-2.54.17-3.81,1.39,1.3.76,3,.77,4.51.06,10.48.26,21-.06,31.44-.14,4.38,1.33,5.63,5.42,5.15a51.35,51.35,0,0,1,7.12.1C1648.49,1035.75,1644,1036.65,1639.59,1034.54Z"/><path class="cls-138" d="M1568.69,1084.52q0,18.64,0,37.29a6.17,6.17,0,0,1-.87-2.08q-.09-16.56,0-33.11A6.38,6.38,0,0,1,1568.69,1084.52Z"/><path class="cls-37" d="M1637.76,1075.72q.08-18.06.15-36.1c1.5,2.5.67,5.25.72,7.87.14,7.94.11,15.89,0,23.84C1638.66,1072.8,1639.42,1074.55,1637.76,1075.72Z"/><path class="cls-37" d="M1606.37,1076.05l26.33,0C1623.92,1076.79,1615.15,1077.34,1606.37,1076.05Z"/><path class="cls-37" d="M1637.53,1039.27l-15,.07A39.37,39.37,0,0,1,1637.53,1039.27Z"/><path class="cls-150" d="M1314,794.48c0-5.72.21-11.46.09-17.18-.06-2.76.6-4,3.68-3.93,10.65.29,8.79-1.6,8.81,8.64,0,3.93,1.69,8.9-.8,11.53s-7.58.34-11.47,1.1Z"/><path class="cls-151" d="M1370.26,969.4c0,2.22,0,4.43,0,6.65.08,2.61-.08,4.4-3.71,4.43s-3.81-1.56-3.73-4.27c.13-4.43.21-8.87,0-13.3-.12-2.95,1-3.68,3.85-3.67,3.1,0,3.82,1.28,3.61,4-.15,2,0,4.11,0,6.17Z"/><path class="cls-152" d="M1732,752.32c0,2.06,0,4.12,0,6.19,0,6,0,5.92-6.09,5.61-1.92-.1-2.93-.48-2.89-2.65.1-6,.1-12.06,0-18.09,0-4.36,3.24-2.29,5.16-2.63,2.19-.39,4.11-.24,3.82,3C1731.82,746.59,1732,749.46,1732,752.32Z"/><path class="cls-153" d="M1726.48,1053c6.67,0,6.65,0,6.7,6.89,0,3.3.86,6.52-4.74,6.18-8.69-.53-8.72-.13-8.72-5.45C1719.71,1053,1719.71,1053,1726.48,1053Z"/><path class="cls-154" d="M1383.3,690.41l10.16-.06c.06,4,0,8,.2,11.94s-2.6,3.37-4.81,3.16-5.95,1.78-5.82-3.1C1383.14,698.37,1383.21,694.39,1383.3,690.41Z"/><path class="cls-155" d="M1724.82,1184.07c.47,3,.12,4.83-3.72,4.77-3.28,0-4.31-1.18-3.8-4.17.36-2.12-1.45-5.26,3.19-5.21C1724.1,1179.5,1725.52,1180.58,1724.82,1184.07Z"/><path class="cls-156" d="M1258.79,745.79c6.24-.06,6.22-.06,6.29,7.33,0,2.68.51,6.19-3.78,4.81-3-1-8.7,3.9-8.75-3.8C1252.5,745.85,1252.47,745.85,1258.79,745.79Z"/><path class="cls-157" d="M1388.86,785.58c0-6.93,0-6.78,6.46-6.46,2.26.11,2.63,1,2.53,2.87-.08,1.58.17,3.18,0,4.75s1.07,4-1,4.61-5,.85-7-.05C1387.56,790.24,1389.4,787.28,1388.86,785.58Z"/><path class="cls-158" d="M1726.63,1009.63c-3.08.4-3.71-1.29-3.78-3.93s.81-3.65,3.5-3.52c2.47.11,4.23.3,4.06,3.55C1730.27,1008.4,1729.59,1010,1726.63,1009.63Z"/><path class="cls-159" d="M1589,584.64a18.19,18.19,0,0,0-2.86,0c-3.42.57-4.28-.89-4.25-4.19.1-8.62,0-8.36,8.46-8.68,4.67-.18,6.47.92,6,6C1595.68,585.16,1598,584.55,1589,584.64Z"/><path class="cls-160" d="M1819,898.15c4-1,4.45,1,4.62,4.28.22,4.13-1.87,4.13-4.9,4.16s-4.84-.29-4.83-4.25C1813.87,898.13,1815.65,897.4,1819,898.15Z"/><path class="cls-161" d="M1276.69,617.13c-.14,7.67,1.12,6-8.12,6.67-4.17.32-4.17-1.89-4.1-4.84.19-9.39-.83-8.09,5.93-8.22C1276.65,610.63,1276.65,610.69,1276.69,617.13Z"/><path class="cls-162" d="M1292.74,1091.32c-4.72,1.11-5.08-1.32-5.31-5.15-.35-5.78,3.42-4.18,6.44-4.53,5.06-.6,3.38,3.07,3.74,5.55C1298.2,1091.33,1296.14,1092.25,1292.74,1091.32Z"/><path class="cls-163" d="M1371.43,738.63c.4,3.22.14,5.33-4,5.1-3.44-.19-5.82-.2-5.34-4.75.33-3-.19-5.56,4.41-5.24C1370.17,734,1372.44,734.49,1371.43,738.63Z"/><path class="cls-164" d="M1760.85,725.48c.93,4-.78,5.09-5,5.12s-3.73-2-4-4.85c-.54-4.64,1.72-4.94,5.44-5C1761.15,720.58,1761.31,722.5,1760.85,725.48Z"/><path class="cls-165" d="M1598.87,534.4c.45,3.06.32,5.52-3.84,4.86-2.47-.4-6.07,1.25-5.39-3.77.35-2.61-1-5.91,3.92-5.36C1596.5,530.47,1600,529.44,1598.87,534.4Z"/><path class="cls-166" d="M1739.9,794.73c-1-4.4,1.94-3.65,4.47-3.92,4-.42,3.1,2.3,3.37,4.55.43,3.45-1.37,3.73-4.17,3.82C1739.93,799.29,1739.08,797.72,1739.9,794.73Z"/><path class="cls-167" d="M1260.44,787.3c.5,2.67-.7,3.46-3.33,3.56-3.78.14-2.75-2.41-3-4.42-.28-2.57.58-3.58,3.35-3.59C1261.09,782.85,1260.55,785.1,1260.44,787.3Z"/><path class="cls-168" d="M1721,1223.45c2.11-.12,3.9-.09,3.8,2.82-.08,2.17-.32,3.74-3.08,3.55-2-.14-3.8-.2-3.8-3C1718,1224.56,1718.39,1223,1721,1223.45Z"/><path class="cls-169" d="M1724.51,1264.09c.52,2.69,0,4.2-3.52,4.19s-4.29-1.45-4-4.53c.22-2.46-.52-4.89,3.66-4.89S1724.74,1261.14,1724.51,1264.09Z"/><path class="cls-170" d="M1852.61,787c.6,3.27-.71,4.35-4.08,4.42-3.77.08-3.84-1.84-4-4.66-.14-3.37,1.52-3.78,4.31-3.84C1852,782.87,1853.36,783.84,1852.61,787Z"/><path class="cls-171" d="M1673.93,1287.36c.46,2.61-.37,3.91-3.23,3.59-2.25-.24-4.33,0-4.28-3.44,0-2.85.82-3.83,3.75-3.75C1672.85,1283.83,1674.53,1284.26,1673.93,1287.36Z"/><path class="cls-172" d="M1564.85,1122.77c-10.59.32-21.18.52-31.76,1-3.55.16-4.65-1-4.6-4.55.2-12.84.09-25.69.09-38.53,10.64,0,21.27,0,31.9-.12,3.08,0,4.59.53,4.53,4.11C1564.79,1097.38,1564.88,1110.08,1564.85,1122.77Z"/><path class="cls-173" d="M1677.22,1436.83a139,139,0,0,1,23-1.79c11.82,0,20.49,2.75,26,7.7,5,4.4,8.11,11.14,8.11,19.39s-2.48,15-7.15,19.8c-6.46,6.74-16.64,10.18-28.33,10.18a41,41,0,0,1-9.62-.83v37.13h-12Zm12,44.69a40,40,0,0,0,9.9,1c14.44,0,23.24-7.15,23.24-19.66s-8.8-18.29-21.87-18.29a50.2,50.2,0,0,0-11.27,1Z"/><path class="cls-173" d="M1760.67,1463.67c-2,3.62-6.12,5.12-10.35,2.79a7.14,7.14,0,0,1-2.8-10,7.4,7.4,0,0,1,10.3-3A7.27,7.27,0,0,1,1760.67,1463.67Zm-12.77,70.86v-61.09H1760v61.09Z"/><path class="cls-173" d="M1817.12,1504.28h0c-2.2,4-4.1,7.07-6.72,11.07l-9.64,15h-13.37l24-33.86m.11-.58,23.28,34.44h-13.64l-9.92-15c-2.62-3.86-3.68-5.86-6-9.85m13.21-7s4.69-7.3,7-10.88l9.23-14.2h13.23l-22.74,32.24m-27.72.42-22.59-32.66h13.5l9.51,14.33c2.61,3.72,4.68,7,6.88,10.75"/><path class="cls-173" d="M1861.71,1505.18c.24,14.35,9.29,20.26,20,20.26,7.6,0,12.3-1.32,16.16-3l1.93,7.6c-3.74,1.68-10.25,3.73-19.54,3.73-18,0-28.7-11.93-28.7-29.54s10.37-31.35,27.38-31.35c19.17,0,24.11,16.64,24.11,27.37a25.91,25.91,0,0,1-.36,4.94Zm31.12-7.59c.11-6.63-2.78-17.13-14.72-17.13-10.85,0-15.43,9.77-16.28,17.13Z"/><path class="cls-173" d="M1916,1435h12.12v95.32H1916Z"/><line class="cls-174" x1="1374.82" y1="898.98" x2="1419.04" y2="920.99"/><line class="cls-175" x1="1550.4" y1="931.62" x2="1549.98" y2="931.31"/><polyline class="cls-175" points="1562.92 939.99 1564.09 942.13 1564.29 944.58"/><path class="cls-176" d="M1227.22,1500l1.57,20.13c-9.68,6.41-17.52,8.11-31.51,8.11-27.06,0-45.37-18-45.37-47.2,0-29.42,18.31-47.2,45.37-47.2,13.47,0,23.27,1.31,31.51,8l-1.57,20.26h-1.7c-3.66-21.57-17.65-26.54-28.24-26.54-13.6,0-28.63,6-28.63,45.5,0,40.14,15.43,45.5,28.63,45.5,10.59,0,26.54-6.67,28.24-26.54Z"/><path class="cls-176" d="M1287.62,1499.24l4.58,11.37c3,7.32,4.31,14.77-2.75,14.77v1.7h29.81v-1.7c-3.66-.26-6.4-.13-10.72-10.59,0,0-16.21-41.31-32.16-79.75h-1.44l-21.83,59.49c-11.38,30.2-14.65,30.72-19.61,30.85v1.7h29.15v-1.7c-18.17.53-12.42-15.69-8.89-26.14l.39-1.7,15.82-43.41,17.13,43.41h-.32"/><path class="cls-176" d="M1405.16,1527.08h-9.94c-16.73,0-14.77-.13-22.22-28.5-3.66-13.73-16.87-13.73-20.27-13.73h-6.14v28.64c0,9,2.87,11.89,8.36,11.89v1.7h-29.28v-1.7c5.62,0,8.1-2.61,8.1-13.59v-65.11c0-8.11-2.35-9.94-8.1-9.94V1435h25c26,0,40.4,3.14,40.4,25,0,17.78-10.2,23-24.32,23.93,8.63.39,17.65,1.31,24.45,29.94,2.35,9.94,10.59,11.24,14,11.5Zm-54.52-90.34h-4.05v46.41h4.05c14.77,0,26,.13,26-23.14C1376.66,1436.22,1364.63,1436.74,1350.64,1436.74Z"/><path class="cls-176" d="M1489.22,1527.08h-9.93c-16.74,0-14.78-.13-22.23-28.5-3.66-13.73-16.86-13.73-20.26-13.73h-6.15v28.64c0,9,2.88,11.89,8.37,11.89v1.7h-29.29v-1.7c5.62,0,8.11-2.61,8.11-13.59v-65.11c0-8.11-2.35-9.94-8.11-9.94V1435h25c26,0,40.4,3.14,40.4,25,0,17.78-10.19,23-24.31,23.93,8.62.39,17.65,1.31,24.44,29.94,2.36,9.94,10.6,11.24,14,11.5Zm-54.52-90.34h-4v46.41h4c14.78,0,26,.13,26-23.14C1460.72,1436.22,1448.69,1436.74,1434.7,1436.74Z"/><path class="cls-176" d="M1535.51,1528.26c-28.77,0-42.5-20.53-42.5-46.54s13.73-47.86,42.5-47.86,42.49,22,42.49,47.86S1564.27,1528.26,1535.51,1528.26Zm0-92.7c-15.56,0-27.46,10.33-27.46,46.16s11.9,44.84,27.46,44.84,27.32-8.89,27.32-44.84S1550.93,1435.56,1535.51,1435.56Z"/><path class="cls-176" d="M1663.5,1435v23h-1.7c-.52-21-22.35-21.31-24.18-21.31h-7.72v77.66c0,8.63,4.06,11,9.55,11v1.7h-31.91v-1.7c5.5,0,9.42-2.35,9.42-11v-77.66h-7.72c-4,0-23.53.26-24,21.31h-1.7v-23Z"/><polygon class="cls-176" points="1260.77 1479.1 1268.62 1491.15 1278.88 1476.71 1280.54 1480.9 1268.87 1497.7 1259.01 1484.21 1260.77 1479.1"/></svg>